<svg xmlns="http://www.w3.org/2000/svg" viewBox="0 0 800 520">
  <defs>
    <linearGradient id="bg1" x1="0" y1="0" x2="800" y2="520" gradientUnits="userSpaceOnUse">
      <stop offset="0%" stop-color="#030e1c"/>
      <stop offset="100%" stop-color="#07315e"/>
    </linearGradient>
    <radialGradient id="halo1" cx="420" cy="230" r="220" gradientUnits="userSpaceOnUse">
      <stop offset="0%" stop-color="#3ab4f230"/>
      <stop offset="100%" stop-color="#3ab4f200"/>
    </radialGradient>
    <radialGradient id="tglow1" cx="420" cy="180" r="120" gradientUnits="userSpaceOnUse">
      <stop offset="0%" stop-color="#ffffff16"/>
      <stop offset="100%" stop-color="#ffffff00"/>
    </radialGradient>
  </defs>

  <!-- Background -->
  <rect width="800" height="520" fill="url(#bg1)"/>
  <ellipse cx="420" cy="240" rx="260" ry="210" fill="url(#halo1)"/>

  <!-- Subtle blueprint grid -->
  <g stroke="#3ab4f208" stroke-width="1" fill="none">
    <line x1="0" y1="130" x2="800" y2="130"/>
    <line x1="0" y1="260" x2="800" y2="260"/>
    <line x1="0" y1="390" x2="800" y2="390"/>
    <line x1="200" y1="0" x2="200" y2="520"/>
    <line x1="400" y1="0" x2="400" y2="520"/>
    <line x1="600" y1="0" x2="600" y2="520"/>
  </g>

  <!-- Background molar left (ghost) -->
  <g opacity="0.14" fill="none" stroke="rgba(255,255,255,0.7)" stroke-width="1.8" stroke-linejoin="round">
    <path d="M155,178 C145,158 150,128 168,112 C180,102 198,95 222,95 C246,95 264,102 276,112 C294,128 299,158 289,178 L289,262 C289,278 278,287 260,287 L184,287 C166,287 155,278 155,262 Z"/>
    <path d="M155,178 C162,162 174,152 183,167 C190,157 204,147 216,163 C221,153 228,148 235,163 C246,147 260,157 267,167 C276,152 288,162 289,178"/>
    <line x1="196" y1="287" x2="189" y2="375" stroke-width="1.5"/>
    <line x1="248" y1="287" x2="255" y2="375" stroke-width="1.5"/>
  </g>

  <!-- Background molar right (ghost) -->
  <g opacity="0.14" fill="none" stroke="rgba(255,255,255,0.7)" stroke-width="1.8" stroke-linejoin="round">
    <path d="M560,178 C550,158 555,128 573,112 C585,102 603,95 627,95 C651,95 669,102 681,112 C699,128 704,158 694,178 L694,262 C694,278 683,287 665,287 L589,287 C571,287 560,278 560,262 Z"/>
    <path d="M560,178 C567,162 579,152 588,167 C595,157 609,147 621,163 C626,153 633,148 640,163 C651,147 665,157 672,167 C681,152 693,162 694,178"/>
    <line x1="601" y1="287" x2="594" y2="375" stroke-width="1.5"/>
    <line x1="653" y1="287" x2="660" y2="375" stroke-width="1.5"/>
  </g>

  <!-- MAIN MOLAR — large, centered, slightly right -->
  <!-- Crown body -->
  <path d="M320,168 C310,145 316,112 337,94 C351,83 373,75 422,75 C471,75 493,83 507,94 C528,112 534,145 524,168 L524,272 C524,291 510,302 488,302 L356,302 C334,302 320,291 320,272 Z"
    fill="rgba(255,255,255,0.07)" stroke="rgba(255,255,255,0.72)" stroke-width="2.5" stroke-linejoin="round"/>
  <!-- Cusp bumps -->
  <path d="M320,168 C328,150 342,139 353,157 C361,144 378,133 393,152 C399,141 414,134 429,152 C444,133 461,144 469,157 C480,139 494,150 524,168"
    fill="none" stroke="rgba(255,255,255,0.72)" stroke-width="2.5" stroke-linejoin="round"/>
  <!-- Tooth fill glow -->
  <ellipse cx="422" cy="185" rx="100" ry="55" fill="url(#tglow1)"/>

  <!-- Root left -->
  <path d="M356,302 L344,385 C340,422 350,452 366,457 C380,462 390,440 390,408 L398,302"
    fill="rgba(255,255,255,0.04)" stroke="rgba(255,255,255,0.55)" stroke-width="2.5" stroke-linejoin="round"/>
  <!-- Root right -->
  <path d="M488,302 L500,385 C504,422 494,452 478,457 C464,462 454,440 454,408 L446,302"
    fill="rgba(255,255,255,0.04)" stroke="rgba(255,255,255,0.55)" stroke-width="2.5" stroke-linejoin="round"/>

  <!-- Root canal — glowing cyan dashed -->
  <path d="M408,178 L400,408 C399,437 406,454 413,456"
    fill="none" stroke="#3ab4f2" stroke-width="2.2" stroke-dasharray="7,7" opacity="0.8"/>
  <path d="M436,178 L444,408 C445,437 438,454 431,456"
    fill="none" stroke="#3ab4f2" stroke-width="2.2" stroke-dasharray="7,7" opacity="0.8"/>
  <!-- Canal opening circle -->
  <ellipse cx="422" cy="178" rx="16" ry="10" fill="rgba(58,180,242,0.15)" stroke="#3ab4f2" stroke-width="1.8" opacity="0.85"/>

  <!-- Sparkles — repair symbolism -->
  <g transform="translate(600,88)" opacity="0.8">
    <line x1="0" y1="-20" x2="0" y2="20" stroke="#3ab4f2" stroke-width="2.2" stroke-linecap="round"/>
    <line x1="-20" y1="0" x2="20" y2="0" stroke="#3ab4f2" stroke-width="2.2" stroke-linecap="round"/>
    <line x1="-13" y1="-13" x2="13" y2="13" stroke="#3ab4f2" stroke-width="1.4" stroke-linecap="round"/>
    <line x1="13" y1="-13" x2="-13" y2="13" stroke="#3ab4f2" stroke-width="1.4" stroke-linecap="round"/>
    <circle cx="0" cy="0" r="4" fill="#3ab4f240"/>
  </g>
  <g transform="translate(660,145)" opacity="0.5">
    <line x1="0" y1="-11" x2="0" y2="11" stroke="#3ab4f2" stroke-width="1.8" stroke-linecap="round"/>
    <line x1="-11" y1="0" x2="11" y2="0" stroke="#3ab4f2" stroke-width="1.8" stroke-linecap="round"/>
  </g>
  <g transform="translate(155,108)" opacity="0.5">
    <line x1="0" y1="-14" x2="0" y2="14" stroke="#3ab4f2" stroke-width="1.8" stroke-linecap="round"/>
    <line x1="-14" y1="0" x2="14" y2="0" stroke="#3ab4f2" stroke-width="1.8" stroke-linecap="round"/>
    <line x1="-9" y1="-9" x2="9" y2="9" stroke="#3ab4f2" stroke-width="1.2" stroke-linecap="round"/>
    <line x1="9" y1="-9" x2="-9" y2="9" stroke="#3ab4f2" stroke-width="1.2" stroke-linecap="round"/>
  </g>

  <!-- Annotation pointer lines -->
  <line x1="524" y1="210" x2="595" y2="195" stroke="#3ab4f255" stroke-width="1" stroke-dasharray="4,5"/>
  <circle cx="598" cy="194" r="3" fill="#3ab4f2" opacity="0.55"/>
  <line x1="524" y1="360" x2="600" y2="360" stroke="#3ab4f255" stroke-width="1" stroke-dasharray="4,5"/>
  <circle cx="603" cy="360" r="3" fill="#3ab4f2" opacity="0.55"/>

  <!-- Corner brackets -->
  <g stroke="#3ab4f235" stroke-width="1.5" fill="none" stroke-linecap="round">
    <path d="M22,42 L42,42 L42,22"/>
    <path d="M778,42 L758,42 L758,22"/>
    <path d="M22,478 L42,478 L42,498"/>
    <path d="M778,478 L758,478 L758,498"/>
  </g>
  <circle cx="42" cy="42" r="2.5" fill="#3ab4f240"/>
  <circle cx="758" cy="42" r="2.5" fill="#3ab4f240"/>
  <circle cx="42" cy="478" r="2.5" fill="#3ab4f240"/>
  <circle cx="758" cy="478" r="2.5" fill="#3ab4f240"/>
</svg>
