<?xml version="1.0" encoding="UTF-8"?>
<!-- Generator: Adobe Illustrator 25.2.0, SVG Export Plug-In . SVG Version: 6.00 Build 0)  -->
<svg xmlns="http://www.w3.org/2000/svg" xmlns:xlink="http://www.w3.org/1999/xlink" version="1.1" id="Livello_1" x="0px" y="0px" viewBox="0 0 512 512" style="enable-background:new 0 0 512 512;" xml:space="preserve">
<style type="text/css">
	.st0{fill:#2B4E9D;}
</style>
<path class="st0" d="M504.5,465.2h-28.9c6.7-9.1,9.4-20.7,7.3-32.2c-1.2-6.2-3.7-11.9-7.2-16.8c6.3-1.5,12.4-4.3,17.7-8.6  c3-2.4,4.8-6,4.8-9.9c0.1-3.9-1.6-7.5-4.5-10l-69.4-59.3c-5.1-4.4-8.9-10-11.1-16.4L397,263.6l0,0L382.4,220  c-6.6-19.8-22.4-35.3-42.3-41.5l-50.3-15.8c13.7-9.6,22.6-25.5,22.6-43.5v-35c0-29.3-23.9-53.2-53.2-53.2S206,54.8,206,84.2v34.9  c0,17.1,8.1,32.4,20.7,42.1c-1.3,0.4-2.6,0.7-3.9,1.1l-51,16c-19.9,6.2-35.7,21.8-42.3,41.5L98.7,312c-2.1,6.4-6,12.1-11.1,16.4  l-69.4,59.4c-2.9,2.5-4.6,6.2-4.5,10s1.8,7.5,4.8,9.9c5.6,4.5,11.9,7.4,18.6,8.8c-6.3,11.6-7.5,25.6-2.6,38.4  c1.5,3.9,3.4,7.3,5.7,10.4H7.5c-4.1,0-7.5,3.4-7.5,7.5s3.4,7.5,7.5,7.5h448.9l0,0l0,0h48.1c4.1,0,7.5-3.4,7.5-7.5  C512,468.6,508.6,465.2,504.5,465.2z M333.8,290.2l26.5,65.9c0.1,0.4,0.3,0.7,0.5,1.1c4.7,7.8,11.4,14.3,19.3,18.7l8.8,4.9  L333.8,364V290.2z M414.6,339.8l67.4,57.6c-9,6-20.7,6.6-30.3,1.2l-64.3-35.8c-5.5-3.1-10.1-7.5-13.5-12.8l-23.6-58.8l35-15.3  l13.7,40.8C402.1,325.7,407.4,333.6,414.6,339.8z M221.1,119.1V84.2c0-21,17.1-38.2,38.2-38.2s38.2,17.1,38.2,38.2v34.9  c0,21-17.1,38.2-38.2,38.2S221.1,140.1,221.1,119.1z M176.4,192.6l51-16c18.7-5.9,38.5-5.9,57.2,0l51,16c15.3,4.8,27.5,16.8,32.6,32  l12.4,37l-35.8,15.6l-11.5-28.6c-1.3-3.3-4.9-5.2-8.4-4.6c-3.5,0.7-6.1,3.8-6.1,7.4V362H193.2V251.5c0-3.6-2.5-6.7-6.1-7.4  c-3.5-0.7-7,1.2-8.4,4.6l-10,24.8l-35.4-17.7l10.4-31.1C148.9,209.4,161.1,197.5,176.4,192.6z M97.4,339.8  c7.2-6.1,12.6-14.1,15.6-23.1l15.6-46.6l34.6,17.3l-5.5,13.6c-1.5,3.8,0.3,8.2,4.2,9.8c3.8,1.5,8.2-0.3,9.8-4.2l6.6-16.3V364  l-54,16.2l7.7-4.3c7.9-4.4,14.6-10.9,19.3-18.7c0.2-0.3,0.4-0.7,0.5-1.1l5.6-14c1.5-3.8-0.3-8.2-4.2-9.8c-3.8-1.5-8.2,0.3-9.8,4.2  L138,350c-3.3,5.3-8,9.8-13.5,12.8l-64.2,35.8c-9.6,5.4-21.3,4.8-30.3-1.2L97.4,339.8z M71.7,465.2L71.7,465.2  c-10.9,0-19.3-5.7-23.1-15.7c-4.3-11.3-1.4-24.6,7.1-33L186.8,377h138.4l124.5,38c9.7,3,16.6,10.7,18.5,20.7s-1.8,19.7-9.8,25.9  l-4.5,3.5H295.4c-1-5.3-3.3-12.2-8.8-18.5l14.9-0.8c4.1-0.2,7.3-3.8,7.1-7.9c-0.2-4.1-3.8-7.3-7.9-7.1l-40.6,2.2  c-1.7-0.3-3.5-0.6-5.4-0.8L139,420.3c-4.1-0.4-7.8,2.6-8.2,6.7s2.6,7.8,6.7,8.2l115.7,12.1c1.8,0.2,3.4,0.4,4.9,0.7h0.1  c15,2.9,20.2,11.1,22.1,17.1L71.7,465.2L71.7,465.2z"></path>
<path class="st0" d="M340,443.8c0.1,0,0.3,0,0.4,0L391,441c4.1-0.2,7.3-3.8,7.1-7.9s-3.8-7.3-7.9-7.1l-50.6,2.8  c-4.1,0.2-7.3,3.8-7.1,7.9C332.8,440.7,336.1,443.8,340,443.8z"></path>
</svg>
