<?xml version="1.0" encoding="UTF-8"?>
<!-- Generator: Adobe Illustrator 26.0.1, SVG Export Plug-In . SVG Version: 6.00 Build 0)  -->
<svg xmlns="http://www.w3.org/2000/svg" xmlns:xlink="http://www.w3.org/1999/xlink" version="1.1" id="Capa_1" x="0px" y="0px" viewBox="0 0 501.8 501.8" style="enable-background:new 0 0 501.8 501.8;" xml:space="preserve">
<style type="text/css">
	.st0{fill:#2B4E9D;}
</style>
<g>
	<path class="st0" d="M136.3,70.1c0-6.7-0.1-11.7,0-16.7c0.2-12.1,2.6-14.5,14.5-14.5c20.2-0.1,40.4,0,60.9,0   c7.2-19.1,20.1-30.6,41.1-30.1c16.7,0.4,28.8,10.4,37.1,30.1c19.5,0,39.4,0,59.2,0c14,0,16.1,2,16.3,15.6   c0.3,17.5-2.6,15.5,15.6,15.6c12.9,0.1,25.9-0.1,38.8,0.1c10,0.2,12.9,3.2,12.9,13.2c0,132.3,0,264.6,0,396.9   c0,10.3-3.2,13.3-13.8,13.3c-112.1,0-224.2,0-336.3,0c-10.6,0-13.7-3-13.7-13.4c0-132.3,0-264.6,0-396.9c0-10,2.9-13,13-13.1   C99.7,69.9,117.3,70.1,136.3,70.1z M155.8,103.3c21.3,0,41.4,0.1,61.6,0c6.5,0,11.7,2.3,11.9,9.2c0.2,6.9-4.6,9.8-11.3,9.8   c-23.4,0-46.7,0.2-70.1-0.2c-3.5-0.1-7-3.1-10.4-5c-2.9-1.5-5.6-3.3-9.1-5.4c0,109.3,0,216.1,0,322.7c82.1,0,163.4,0,245,0   c0-107.4,0-214.3,0-323.8c-4.2,3-6.7,4.9-9.4,6.7c-2.8,1.8-5.7,4.8-8.6,4.8c-24,0.4-48,0.6-72-0.2c-3.4-0.1-6.6-5.9-9.8-9.1   c3.3-3.1,6.2-8.1,10-9c7-1.5,14.4-0.5,21.7-0.5c13.4,0,26.9,0,40.3,0c0-15.8,0-30.2,0-44.9c-63.6,0-126.6,0-190,0   C155.8,73.3,155.8,87.7,155.8,103.3z M88.5,473.9c108.7,0,216.7,0,324.8,0c0-128.4,0-256.2,0-383.5c-16.1,0-31.7,0-47.2,0   c0,1.1-0.1,2.2-0.1,3.4c4.1,0,8.2,0,12.3,0c11.9,0.1,14.7,2.7,14.7,14.2c0,110.5,0,221,0,331.5c0,11.3-2.8,14.3-13.7,14.3   c-85.6,0-171.1,0-256.7,0c-11,0-13.8-3-13.8-14.2c-0.1-18.9,0-37.9,0-56.8c0-90,0-180,0-269.9c0-17.9,1-18.9,18.5-19.1   c2.8,0,5.7-0.3,8.5-0.5c0-0.9,0-1.9-0.1-2.8c-15.5,0-31.1,0-47.2,0C88.5,217.7,88.5,345.5,88.5,473.9z M268.6,38.3   c-11.2-14.2-26.3-13.9-34.5,0C245.4,38.3,256.3,38.3,268.6,38.3z"></path>
	<path class="st0" d="M268.6,38.3c-12.3,0-23.2,0-34.5,0"></path>
	<path class="st0" d="M251,174c9.8-13.1,21.8-20.1,37.9-16.8c26.2,5.4,41.4,34.8,27,58c-12.1,19.6-18.7,40.2-23.5,62   c-0.5,2.4-1.5,4.8-2.5,7.1c-3,6.7-7.6,11.8-15.5,12.1c-7.8,0.4-13.1-4-16.4-10.6c-2.6-5.2-4.6-10.8-7.3-17.1   c-2.8,6.6-4.1,13.2-7.9,17.6c-3.9,4.5-10.5,9.7-15.7,9.5c-5.2-0.2-12.3-5.6-14.8-10.7c-4.4-8.9-5.3-19.4-8.7-28.8   c-3.9-10.8-7.8-21.8-13.7-31.6c-11-18.1-12.5-36.9-2.3-51.4C203.2,151.1,229.1,151.1,251,174z M272.4,271.4   c0.6,0.1,1.2,0.1,1.8,0.2c1.1-4.1,2.4-8.2,3.2-12.4c3.1-16.9,7.5-33.2,18.9-46.8c2.5-3,4.1-7.2,5.1-11.1   c2.5-9.7-2.3-19.7-10.8-23.9c-8.8-4.3-15.5-2.4-23,6.6c-1.8,2.2-3.5,4.5-5.5,6.5c-7.5,7.3-14.9,7.3-22.4,0   c-2.2-2.2-4.1-4.8-6.1-7.2c-5.2-6.6-11.4-9.9-19.8-6.8c-8.6,3.2-14.2,9.4-13.5,18.4c0.5,6.5,2.7,13.9,6.5,19.1   c8.6,11.8,13.5,24.8,16.2,38.9c1.2,6.2,3,12.2,4.5,18.3c3.7-5.9,5.2-11.7,7.3-17.2c2.8-7.8,5.6-16.1,16-16.2   c10.3-0.1,13.4,8,16.2,15.9C268.7,259.5,270.5,265.5,272.4,271.4z"></path>
	<path class="st0" d="M267.9,368.5c24.3,0,48.6,0.1,72.9-0.1c7,0,13.4,1.3,13.3,9.6c-0.1,8.3-6.6,9.5-13.6,9.4   c-48.6-0.1-97.2,0-145.8-0.1c-9.3,0-14.1-4.2-12.8-11c1.3-6.6,6.2-8,12.1-8C218.7,368.5,243.3,368.5,267.9,368.5z"></path>
	<path class="st0" d="M268.3,338.6c-24.3,0-48.6-0.1-72.9,0c-6.9,0-13.5-0.9-13.4-9.4c0-8.4,6.6-9.6,13.5-9.6c48.6,0,97.2,0,145.7,0   c6.6,0,12.6,1.5,13,9.2c0.3,7.7-5.2,9.8-12.1,9.8C317.5,338.6,292.9,338.6,268.3,338.6z"></path>
	<path class="st0" d="M157.8,388.6c-2.3-3.8-6.6-7.8-6.3-11.4c0.3-3.1,5.6-7.6,9.1-8.2c5.6-0.8,9.8,3.8,8.5,9.6   c-0.8,3.7-4.8,6.8-7.4,10.1C160.5,388.7,159.1,388.6,157.8,388.6z"></path>
	<path class="st0" d="M262,114.8c-3.7,2.4-7.5,6.9-11,6.7c-3.2-0.2-6.2-5.5-9.2-8.5c3.2-3.2,6.1-8.2,9.8-9c2.8-0.6,6.8,4.2,10.2,6.6   C261.8,112,261.9,113.4,262,114.8z"></path>
	<path class="st0" d="M159.7,316.1c4.5,5.7,8.6,8.7,9.5,12.4c1.4,5.7-2.4,9.6-8.4,9.9c-6.1,0.3-10.2-3.4-9.5-9   C151.7,325.6,155.6,322.2,159.7,316.1z"></path>
</g>
<g>
	<path class="st0" d="M1144,337.5c14.3,0,25.9-11.6,25.9-25.9s-11.6-25.9-25.9-25.9h-0.1V158.5c0-6-2.3-11.7-6.6-15.9l-38.1-38.1   c-2.9-2.9-7.7-2.9-10.6,0c-2.9,2.9-2.9,7.7,0,10.6l38.1,38.1c1.4,1.4,2.2,3.3,2.2,5.3v127.2h-15v-121c0-2-0.8-3.9-2.2-5.3l-94-94   c-2.9-2.9-2.9-7.7,0-10.6c1.4-1.4,3.3-2.2,5.3-2.2c2,0,3.9,0.8,5.3,2.2l39.4,39.4c2.9,2.9,7.7,2.9,10.6,0s2.9-7.7,0-10.6   l-39.4-39.4c-4.3-4.2-9.9-6.6-15.9-6.6c-6,0-11.7,2.3-15.9,6.6c-2.9,2.9-4.9,6.5-5.8,10.3c-14.8-8.6-31.6-13.1-49.2-13.1   c-26.3,0-50.9,10.2-69.5,28.8c-2.9,2.9-2.9,7.7,0,10.6L1011,209.2c1.5,1.5,3.4,2.2,5.3,2.2c1.9,0,3.8-0.7,5.3-2.2   c18.6-18.6,28.8-43.3,28.8-69.5c0-7.8-0.9-15.5-2.7-22.9l51.2,51.2v117.8h-82.7c-14.3,0-25.9,11.6-25.9,25.9s11.6,25.9,25.9,25.9   h82.7v80.2l-55.1-31.2c-5.6-3.2-12-4.9-18.5-4.9H918.1V370c32.2-10.7,55.4-41,55.4-76.7c0-4.1-3.4-7.5-7.5-7.5h-13.4v-52.2   c0-25.6-20.8-46.3-46.3-46.3c-25.5,0-46.3,20.8-46.3,46.3v13.2c0,4.1,3.4,7.5,7.5,7.5h24.7c4.1,0,7.5-3.4,7.5-7.5v-13.2   c0-3.6,3-6.6,6.6-6.6c3.6,0,6.6,3,6.6,6.6v52.2h-93.5c-4.1,0-7.5,3.4-7.5,7.5c0,35.7,23.3,66,55.4,76.7v11.6h-57.6l-80.8-158   c-4.6-8.9-12.3-15.5-21.9-18.6c-9.5-3.1-19.7-2.3-28.6,2.3c-18.5,9.5-25.8,32.1-16.4,50.5L745.1,420c1.9,3.7,6.4,5.1,10.1,3.3   c3.7-1.9,5.1-6.4,3.3-10.1L675.4,251c-2.7-5.4-3.2-11.5-1.4-17.2s5.8-10.4,11.2-13.1c5.4-2.7,11.5-3.2,17.2-1.4   c5.7,1.9,10.4,5.8,13.1,11.2l83,162.1c1.3,2.5,3.9,4.1,6.7,4.1h220.1c3.9,0,7.7,1,11.1,2.9l93,52.7c5.2,3,9,7.8,10.6,13.6   c1.6,5.8,0.9,11.9-2.1,17.1c-4,7.1-11.5,11.4-19.6,11.4c-3.9,0-7.7-1-11.1-2.9l-86.1-48.8c-1.1-0.6-2.4-1-3.7-1H786.8   c-5.4,0-10.6-1.9-14.7-5.4c-3.1-2.7-7.9-2.3-10.6,0.8c-2.7,3.1-2.3,7.9,0.8,10.6c6.8,5.9,15.5,9.1,24.5,9.1h40.1l-30.1,78.7   c-0.9,2.3-0.6,4.9,0.8,6.9c1.4,2,3.7,3.2,6.2,3.2h172.9c2.5,0,4.8-1.2,6.2-3.2s1.7-4.6,0.8-6.9l-30.1-78.7h61.7l83.5,47.3v34.1   c0,4.1,3.4,7.5,7.5,7.5h30c4.1,0,7.5-3.4,7.5-7.5v-38.9c2.7-2.6,5.1-5.5,7-8.9c4.9-8.7,6.2-18.9,3.5-28.5   c-1.9-6.8-5.5-12.7-10.5-17.4L1144,337.5L1144,337.5z M1016,193L898.7,75.6c14.9-12.5,33.6-19.3,53.4-19.3   c22.2,0,43.2,8.7,58.9,24.4C1041.7,111.4,1043.4,160.3,1016,193z M906.4,211.9c-11.9,0-21.6,9.7-21.6,21.6v5.7h-9.7v-5.7   c0-17.3,14.1-31.3,31.3-31.3c17.3,0,31.3,14.1,31.3,31.3v52.2H928v-52.2C928,221.6,918.3,211.9,906.4,211.9L906.4,211.9z    M827.4,300.7h130.8c-3.7,32.8-31.6,58.3-65.4,58.3S831.1,333.5,827.4,300.7L827.4,300.7z M882.4,373.3c3.4,0.4,6.9,0.7,10.4,0.7   s7-0.2,10.4-0.7v8.3h-20.7L882.4,373.3L882.4,373.3z M814.7,530.6l28.3-73.9h94.7l28.3,73.9H814.7z M1005.2,311.6   c0-6,4.9-10.9,10.9-10.9h127.8c6,0,10.9,4.9,10.9,10.9s-4.9,10.9-10.9,10.9h-127.7C1010.1,322.5,1005.2,317.6,1005.2,311.6   L1005.2,311.6z M1128.9,530.6h-15v-21.5c1.4,0.2,2.9,0.3,4.4,0.3c3.7,0,7.3-0.6,10.7-1.6v22.8H1128.9z M1128.9,434.7l-15-8.5v-88.7   h15V434.7z"></path>
</g>
</svg>
