<?xml version="1.0" encoding="UTF-8"?>
<!-- Generator: Adobe Illustrator 26.0.1, SVG Export Plug-In . SVG Version: 6.00 Build 0)  -->
<svg xmlns="http://www.w3.org/2000/svg" xmlns:xlink="http://www.w3.org/1999/xlink" version="1.1" id="Capa_1" x="0px" y="0px" viewBox="0 0 501.8 501.8" style="enable-background:new 0 0 501.8 501.8;" xml:space="preserve">
<style type="text/css">
	.st0{fill:#2B4E9D;}
</style>
<g>
	<path class="st0" d="M496.6,286.4c0,53.2,0,106.4,0,159.6c0,34.1-16.5,50.5-50.8,50.5c-103.2,0-206.4,0.1-309.6-0.1   C73.2,496.4,20.7,452.6,8.6,391C-5.2,320.9,42,251.6,112.5,239.2c7.6-1.3,9.2-4.1,9.2-11c-0.2-57.7-0.1-115.4-0.1-173.1   c0-34.8,16.3-50.9,51.4-50.9c68.9,0,137.8,0.1,206.7-0.1c8.7,0,15.1,2.6,21.2,8.8c28.8,29.2,57.8,58.2,87,87   c6.2,6.1,8.9,12.6,8.9,21.2C496.5,176.1,496.6,231.3,496.6,286.4z M371.5,34.1c-2-0.5-3-1-3.9-1c-67.3,0-134.6-0.1-201.9,0   c-10.1,0-15.2,5.8-15.2,16.9c-0.1,59.9,0,119.9-0.2,179.8c0,6.1,2,8.2,8,9.1c19.3,3,36.6,10.8,52.8,21.7c4.2,2.8,9.8,4.8,14.8,4.8   c55.1,0.3,110.3,0.2,165.4,0.2c8,0,16.2-1,24,0.4c4.6,0.9,10.3,4.7,12.2,8.8c1.7,3.7,0.7,11.1-2.1,13.9c-3.5,3.5-10,5.5-15.3,5.6   c-51.6,0.4-103.2,0.2-154.8,0.3c-3.3,0-6.6,0.3-8.5,0.4c6.8,19,13.5,37.5,20.6,57.3c1.6,0,5.1,0,8.6,0c43.9,0,87.8,0,131.7,0   c2.6,0,5.1-0.2,7.7,0.1c8.2,0.8,14,6.9,13.6,14.6c-0.4,8.2-5.1,12.9-13.1,14c-2.5,0.4-5.1,0.1-7.7,0.1c-44.2,0-88.5,0-132.7,0   c-3.4,0-6.9,0-10.4,0c-4.7,34.6-20,62.6-47.3,86.5c5.6,0,8.7,0,11.8,0c72.1,0,144.2,0,216.4,0c17.9,0,21.7-3.8,21.7-22.2   c0-101.6,0-203.2,0-304.8c0-3.5,0-6.9,0-11.4c-4.1,0-7.2,0-10.3,0c-21.8,0-43.6,0-65.4,0c-16.1,0-20.4-4.3-20.4-20.6   C371.5,84,371.5,59.3,371.5,34.1z M236.8,366.4c-0.2-55.8-45.4-100.7-101.2-100.6C80.1,265.9,34.9,311.4,35.1,367   c0.2,55.8,45.5,100.7,101.2,100.6C191.9,467.5,237,422,236.8,366.4z M401.1,99.7c14.7,0,29.2,0,41.9,0   c-13.7-13.7-27.9-27.9-41.9-41.9C401.1,70.9,401.1,85.1,401.1,99.7z"></path>
	<path class="st0" d="M115.3,388.5c-6-6.5-11-12.4-16.4-17.8c-7.4-7.2-16.1-7.7-22.1-1.7c-6.1,6.2-5.6,14.5,1.7,22   c8,8.3,16.2,16.4,24.4,24.5c9.2,9,16.5,9.1,25.6,0.2c13.5-13.3,26.7-26.7,40.1-40.1c8.1-8.2,16.5-16.1,24.3-24.6   c6.2-6.7,6-15,0.2-20.6c-5.6-5.5-14-5.3-20.8,0.5c-2.2,1.9-4.1,4-6.2,6.1C149.8,353.7,133.4,370.3,115.3,388.5z"></path>
	<path class="st0" d="M309.2,179.2c34.3,0,68.5-0.1,102.8,0c11.4,0,18,6.4,17,15.9c-0.8,7.9-6.7,12.8-16.2,12.9   c-25.3,0.1-50.6,0-75.9,0c-43.6,0-87.1,0-130.7,0c-11.4,0-18-6.4-17-15.9c0.8-8.2,6.9-12.9,17.2-12.9   C240.6,179.1,274.9,179.2,309.2,179.2z"></path>
	<path class="st0" d="M115.3,388.5c18.1-18.2,34.5-34.8,50.9-51.4c2-2,4-4.2,6.2-6.1c6.7-5.9,15.1-6,20.8-0.5c5.8,5.7,6,14-0.2,20.6   c-7.8,8.4-16.2,16.4-24.3,24.6c-13.4,13.4-26.6,26.8-40.1,40.1c-9.1,8.9-16.4,8.8-25.6-0.2c-8.2-8.1-16.4-16.2-24.4-24.5   c-7.3-7.6-7.8-15.9-1.7-22c6-6,14.8-5.6,22.1,1.7C104.3,376.1,109.3,382,115.3,388.5z"></path>
</g>
</svg>
