<?xml version="1.0" encoding="utf-8"?>
<!-- Generator: Adobe Illustrator 25.2.0, SVG Export Plug-In . SVG Version: 6.00 Build 0)  -->
<svg version="1.1" id="Capa_1" xmlns="http://www.w3.org/2000/svg" xmlns:xlink="http://www.w3.org/1999/xlink" x="0px" y="0px"
	 viewBox="0 0 512 512" style="enable-background:new 0 0 512 512;" xml:space="preserve">
<style type="text/css">
	.st0{fill:#FFFFFF;}
</style>
<g>
	<path class="st0" d="M486.1,301.9c14.3,0,25.9-11.6,25.9-25.9s-11.6-25.9-25.9-25.9H486V122.9c0-6-2.3-11.7-6.6-15.9l-38.1-38.1
		c-2.9-2.9-7.7-2.9-10.6,0c-2.9,2.9-2.9,7.7,0,10.6l38.1,38.1c1.4,1.4,2.2,3.3,2.2,5.3v127.2h-15v-121c0-2-0.8-3.9-2.2-5.3l-94-94
		c-2.9-2.9-2.9-7.7,0-10.6c1.4-1.4,3.3-2.2,5.3-2.2c2,0,3.9,0.8,5.3,2.2l39.4,39.4c2.9,2.9,7.7,2.9,10.6,0c2.9-2.9,2.9-7.7,0-10.6
		L381,8.6c-4.3-4.2-9.9-6.6-15.9-6.6c-6,0-11.7,2.3-15.9,6.6c-2.9,2.9-4.9,6.5-5.8,10.3c-14.8-8.6-31.6-13.1-49.2-13.1
		c-26.3,0-50.9,10.2-69.5,28.8c-2.9,2.9-2.9,7.7,0,10.6l128.4,128.4c1.5,1.5,3.4,2.2,5.3,2.2s3.8-0.7,5.3-2.2
		c18.6-18.6,28.8-43.3,28.8-69.5c0-7.8-0.9-15.5-2.7-22.9l51.2,51.2v117.8h-82.7c-14.3,0-25.9,11.6-25.9,25.9s11.6,25.9,25.9,25.9
		H441v80.2l-55.1-31.2c-5.6-3.2-12-4.9-18.5-4.9H260.2v-11.7c32.2-10.7,55.4-41,55.4-76.7c0-4.1-3.4-7.5-7.5-7.5h-13.4v-52.2
		c0-25.6-20.8-46.3-46.3-46.3s-46.3,20.8-46.3,46.3v13.2c0,4.1,3.4,7.5,7.5,7.5h24.7c4.1,0,7.5-3.4,7.5-7.5v-13.2
		c0-3.6,3-6.6,6.6-6.6c3.6,0,6.6,3,6.6,6.6v52.2h-93.5c-4.1,0-7.5,3.4-7.5,7.5c0,35.7,23.3,66,55.4,76.7V346h-57.6L71,188
		c-4.6-8.9-12.3-15.5-21.9-18.6c-9.5-3.1-19.7-2.3-28.6,2.3C2,181.2-5.3,203.8,4.1,222.2l83.1,162.2c1.9,3.7,6.4,5.1,10.1,3.3
		c3.7-1.9,5.1-6.4,3.3-10.1L17.5,215.4c-2.7-5.4-3.2-11.5-1.4-17.2s5.8-10.4,11.2-13.1c5.4-2.7,11.5-3.2,17.2-1.4
		c5.7,1.9,10.4,5.8,13.1,11.2l83,162.1c1.3,2.5,3.9,4.1,6.7,4.1h220.1c3.9,0,7.7,1,11.1,2.9l93,52.7c5.2,3,9,7.8,10.6,13.6
		c1.6,5.8,0.9,11.9-2.1,17.1c-4,7.1-11.5,11.4-19.6,11.4c-3.9,0-7.7-1-11.1-2.9l-86.1-48.8c-1.1-0.6-2.4-1-3.7-1H128.9
		c-5.4,0-10.6-1.9-14.7-5.4c-3.1-2.7-7.9-2.3-10.6,0.8c-2.7,3.1-2.3,7.9,0.8,10.6c6.8,5.9,15.5,9.1,24.5,9.1H169l-30.1,78.7
		c-0.9,2.3-0.6,4.9,0.8,6.9c1.4,2,3.7,3.2,6.2,3.2h172.9c2.5,0,4.8-1.2,6.2-3.2s1.7-4.6,0.8-6.9l-30.1-78.7h61.7l83.5,47.3v34.1
		c0,4.1,3.4,7.5,7.5,7.5h30c4.1,0,7.5-3.4,7.5-7.5v-38.9c2.7-2.6,5.1-5.5,7-8.9c4.9-8.7,6.2-18.9,3.5-28.5
		c-1.9-6.8-5.5-12.7-10.5-17.4L486.1,301.9L486.1,301.9z M358.1,157.4L240.8,40c14.9-12.5,33.6-19.3,53.4-19.3
		c22.2,0,43.2,8.7,58.9,24.4C383.8,75.8,385.5,124.7,358.1,157.4z M248.5,176.3c-11.9,0-21.6,9.7-21.6,21.6v5.7h-9.7v-5.7
		c0-17.3,14.1-31.3,31.3-31.3c17.3,0,31.3,14.1,31.3,31.3v52.2h-9.7v-52.2C270.1,186,260.4,176.3,248.5,176.3L248.5,176.3z
		 M169.5,265.1h130.8c-3.7,32.8-31.6,58.3-65.4,58.3S173.2,297.9,169.5,265.1L169.5,265.1z M224.5,337.7c3.4,0.4,6.9,0.7,10.4,0.7
		c3.5,0,7-0.2,10.4-0.7v8.3h-20.7V337.7z M156.8,495l28.3-73.9h94.7l28.3,73.9H156.8z M347.3,276c0-6,4.9-10.9,10.9-10.9h127.8
		c6,0,10.9,4.9,10.9,10.9s-4.9,10.9-10.9,10.9H358.3C352.2,286.9,347.3,282,347.3,276L347.3,276z M471,495h-15v-21.5
		c1.4,0.2,2.9,0.3,4.4,0.3c3.7,0,7.3-0.6,10.7-1.6V495z M471,399.1l-15-8.5v-88.7h15V399.1z"/>
</g>
</svg>
