<?xml version="1.0" encoding="utf-8"?>
<!-- Generator: Adobe Illustrator 25.2.0, SVG Export Plug-In . SVG Version: 6.00 Build 0)  -->
<svg version="1.1" id="Livello_1" xmlns="http://www.w3.org/2000/svg" xmlns:xlink="http://www.w3.org/1999/xlink" x="0px" y="0px"
	 viewBox="0 0 150 150" style="enable-background:new 0 0 150 150;" xml:space="preserve">
<style type="text/css">
	.st0{fill:none;stroke:#C3DAC2;stroke-width:0.8498;stroke-miterlimit:10;}
	.st1{fill:#2F529F;}
	.st2{fill:none;stroke:#2F529F;stroke-width:4.2492;stroke-miterlimit:10;}
	.st3{fill:#2B4D9C;stroke:#2B4D9C;stroke-width:0.8498;stroke-miterlimit:10;}
	.st4{fill:#8C8C8C;stroke:#8C8C8C;stroke-width:0.8498;stroke-miterlimit:10;}
</style>
<path class="st0" d="M12,21.8"/>
<g>
	<path class="st1" d="M118.6,42.1c0,9.6-6.2,17.3-13.8,17.3c-7.6,0-13.8-7.8-13.8-17.3c0-9.6,6.2-17.3,13.8-17.3
		C112.4,24.8,118.6,32.5,118.6,42.1z"/>
	<path class="st2" d="M118.6,42.1c0,9.6-6.2,17.3-13.8,17.3c-7.6,0-13.8-7.8-13.8-17.3c0-9.6,6.2-17.3,13.8-17.3
		C112.4,24.8,118.6,32.5,118.6,42.1z"/>
</g>
<path class="st3" d="M4.5,24.5c0,0,60.8-32.9,82.4,47.4c18.8,69.8,49.5,51.1,59.8,52.3c0,0-21.9,13.8-43.1,5.3
	c-6.7-2.7-28.3-11-42.2-50.3C42.5,25.1,17.7,25.8,4.5,24.5"/>
<polygon class="st4" points="50.5,71.2 62.8,102.2 30.5,132.4 3.5,132.4 "/>
</svg>
