<?xml version="1.0" encoding="utf-8"?>
<!-- Generator: Adobe Illustrator 26.0.1, SVG Export Plug-In . SVG Version: 6.00 Build 0)  -->
<svg version="1.1" id="Capa_1" xmlns="http://www.w3.org/2000/svg" xmlns:xlink="http://www.w3.org/1999/xlink" x="0px" y="0px"
	 viewBox="0 0 501.8 501.8" style="enable-background:new 0 0 501.8 501.8;" xml:space="preserve">
<style type="text/css">
	.st0{fill:#2B4E9D;}
	.st1{fill:#FFFFFF;}
</style>
<g>
	<path class="st0" d="M98.1,48.3c0-10.1,0.1-18.6,0-27.2c-0.1-7.9,3.7-11.9,11.7-11.9c11.6,0,23.3,0.1,34.9,0
		c8.6-0.1,12.2,4.4,12.2,12.5c0,8.5,0,17,0,26c65.5,0,129.9,0,195.7,0c0-8-0.1-15.8,0-23.7c0.1-11.8,3-14.8,14.5-14.8
		c10.7-0.1,21.4,0.1,32.2,0c8.5-0.1,12.4,4,12.2,12.3c-0.1,8.5,0,17,0,26.7c11.9,0,22.8,0,33.7,0c29.3,0.1,44.9,15.5,44.9,44.7
		c0,100.2-0.1,200.3,0.2,300.5c0,8.7-2.5,14.9-8.8,20.9c-19.6,19-38.9,38.2-57.8,57.9c-5.7,5.9-11.8,7.7-19.6,7.7
		c-61.9-0.1-123.7,0-185.6,0c-51.8,0-103.5,0-155.3,0c-28.1,0-43.9-15.7-43.9-43.7c0-114.9,0-229.7,0-344.6
		c0-27.3,16-43.2,43.5-43.3C74.3,48.2,85.6,48.3,98.1,48.3z M39.3,166.5c0,4,0,7,0,10c0,86.1,0,172.2,0,258.2
		c0,19.2,6,25.3,25.2,25.3c109,0,218.1,0,327.1,0c3.2,0,6.4,0,10.3,0c0-18.5,0-35.6,0-52.7c0-13.5,2.3-15.8,16.2-15.8
		c9.8,0,19.6,0,29.4,0c7.5,0,15,0,22.4,0c0-75.8,0-150.2,0-225.1C326.4,166.5,183.6,166.5,39.3,166.5z M157,68.5
		c0,9.5,0.1,18.4,0,27.2c-0.2,7.3-3.7,11.4-11.4,11.4c-11.9,0-23.9-0.1-35.8,0c-8.1,0.1-11.7-4-11.6-11.9c0.1-8.8,0-17.6,0-27.2
		c-9,0-16.9,0-24.8,0c-31.1,0-34,2.9-34,34.1c0,14.6,0,29.1,0,44c144.2,0,287,0,430.6,0c0-21.2,0.6-42-0.3-62.6
		c-0.3-8.4-7.1-14.3-15.3-14.8c-13.9-1-27.9-0.3-42.8-0.3c0,9,0.1,17.2,0,25.4c-0.1,10.8-2.4,13.2-12.8,13.4c-11,0.1-22,0.1-33.1,0
		c-9.5-0.1-12.7-3.2-12.9-12.6c-0.2-8.5,0-17,0-25.9C287.3,68.5,222.8,68.5,157,68.5z M136.8,29.8c-6.9,0-12.8,0-18.7,0
		c0,19.5,0,38.3,0,57.4c6.6,0,12.5,0,18.7,0C136.8,67.8,136.8,49,136.8,29.8z M391.7,87.4c0-19.8,0-38.6,0-57.8
		c-6.4,0-12.4,0-18.6,0c0,19.4,0,38.4,0,57.8C379.4,87.4,385,87.4,391.7,87.4z M422.2,443.6c0.7,0.4,1.4,0.7,2.1,1.1
		c5-5.3,9.9-10.7,15-16s10.2-10.5,16-16.5c-12.2,0-22.7,0-33.1,0C422.2,423.2,422.2,433.4,422.2,443.6z"/>
	<path class="st0" d="M117.2,190.1c10.2,1.9,20.8,2.7,30.5,5.9c12.6,4.1,24.2,3,36.8,0.3c14.2-3,29.1-4.8,43.5-3.8
		c22.8,1.6,37.3,15.6,43.1,37.8c6.2,23.8,4.5,47.5-7.5,68.7c-13.3,23.5-18.7,48.1-19.7,74.5c-0.4,10.7-2.4,21.3-4,31.9
		c-2,12.4-10,20.1-20.9,20.9c-11.9,0.9-20-5.2-24.9-17.4c-5.1-12.8-10-25.7-16.6-37.7c-8.3-15.1-14-15-22.4,0.3
		c-6.3,11.5-11.2,23.8-15.9,36c-5.3,13.7-13.2,19.9-25.7,18.7c-11-1-18.8-8.7-20.6-22.2c-2.2-16.1-4.2-32.2-5-48.4
		c-0.8-16-5.6-30.3-12.1-44.8c-6.8-15.2-13.3-31.1-16.1-47.3c-2.1-11.8,0.4-25.1,3.8-37C70.2,202.4,88.8,191,117.2,190.1z
		 M117.1,209.9c-23.4,0.7-33.9,9.4-37.8,32.3c-3.3,19.5,0.8,37.9,10.7,54.7c11.6,19.8,16.8,41,17.8,63.8c0.6,13.4,2.7,26.8,4.5,40.1
		c0.3,2,2.3,3.8,3.6,5.7c1.5-1.7,3.6-3.1,4.5-5.1c4.6-10.7,8.2-21.8,13.5-32.1c4.2-8,9.6-15.8,16-22.2c10.5-10.6,22.6-10.6,33.3-0.1
		c5.8,5.7,11,12.5,14.7,19.7c5.7,11.1,9.9,23,14.9,34.4c0.9,2,2.9,3.5,4.4,5.2c1.3-1.8,3.2-3.5,3.6-5.5c1.3-6.3,2.4-12.7,2.7-19.1
		c1.5-32.6,5.2-64.3,23.2-93.2c9.1-14.7,10.2-32.4,6.5-49.9c-3.8-18.2-14-27.8-32.3-27.4c-11.5,0.2-23.1,2.1-34.3,4.8
		c-11.9,3-23.3,3.8-35.3,0.8C139.9,214.1,128.4,212.2,117.1,209.9z"/>
	<path class="st0" d="M333.1,250c-6.1,0-12.2,0-18.4,0c-7,0-10.9-3.4-10.9-10.6c-0.1-12.5-0.1-25.1,0-37.6c0-6.7,4-10.3,10.3-10.4
		c12.5-0.3,25.1-0.3,37.6,0c6.9,0.2,10.6,4.4,10.7,11.2c0.2,11.9,0.2,23.9,0,35.8c-0.1,7.8-4,11.9-12,11.7
		C344.7,249.9,338.9,250,333.1,250z M342.5,211.6c-6.9,0-12.9,0-18.5,0c0,6.6,0,12.5,0,18.2c6.7,0,12.6,0,18.5,0
		C342.5,223.4,342.5,217.7,342.5,211.6z"/>
	<path class="st0" d="M421.3,250c-6.1,0-12.2,0-18.4,0c-7.1,0-10.8-3.6-10.9-10.7c-0.1-12.2,0-24.5,0-36.7c0-7.1,3.6-11.1,10.5-11.3
		c12.5-0.3,25.1-0.3,37.6,0c6.4,0.1,10.4,3.9,10.6,10.4c0.3,12.5,0.3,25.1,0,37.6c-0.2,6.8-4,10.7-11.1,10.7
		C433.5,250,427.4,250,421.3,250z M411.8,230.1c6.6,0,12.5,0,18.7,0c0-6.5,0-12.4,0-18.7c-6.4,0-12.3,0-18.7,0
		C411.8,217.6,411.8,223.3,411.8,230.1z"/>
	<path class="st0" d="M332.8,338.2c-6.1,0-12.2,0-18.4,0c-6.6-0.1-10.5-3.2-10.6-10c-0.2-12.9-0.1-25.7,0-38.6c0-6.3,3.8-9.9,9.7-10
		c12.8-0.4,25.7-0.4,38.5,0c7,0.2,10.4,4.7,10.4,11.5c0.1,11.9,0.2,23.9,0,35.8c-0.1,7.2-3.7,11.4-11.4,11.4
		C345,338.2,338.9,338.2,332.8,338.2z M342.2,318.5c0-7,0-12.9,0-18.7c-6.6,0-12.5,0-18.3,0c0,6.6,0,12.4,0,18.7
		C330.3,318.5,336,318.5,342.2,318.5z"/>
	<path class="st0" d="M421.3,338.2c-6.1,0-12.2,0-18.4,0c-7.1,0-10.9-3.5-10.9-10.6c-0.1-12.5-0.1-25.1,0-37.6
		c0-6.8,4-10.2,10.4-10.4c12.5-0.3,25.1-0.3,37.6,0c6.9,0.2,10.6,4.4,10.7,11.3c0.2,11.9,0.2,23.9,0,35.8c-0.1,7.8-4,11.8-12,11.7
		C432.9,338.2,427.1,338.2,421.3,338.2z M430.8,299.8c-6.9,0-12.8,0-18.6,0c-2.4,20.1,0.1,22.4,18.6,17.6"/>
	<path class="st0" d="M332.7,426.5c-5.8,0-11.6,0-17.4,0c-7.5,0.1-11.5-3.4-11.5-11.1c0-12.2,0-24.5,0-36.7c0-7.2,4-10.8,10.8-10.9
		c12.2-0.3,24.5-0.2,36.7,0c7.4,0.1,11.2,4.4,11.2,11.7c0.1,11.6,0.1,23.3,0,34.9c0,8.2-4,12.4-12.5,12.2
		C344.3,426.4,338.5,426.5,332.7,426.5z M323.6,406.7c6.9,0,12.6,0,18.5,0c0-6.7,0-12.8,0-18.5c-6.7,0-12.6,0-18.5,0
		C323.6,394.6,323.6,400.3,323.6,406.7z"/>
	<path class="st0" d="M254.6,113c-18,0-36,0-54.1,0c-7.2,0-14.2-0.9-14.1-10.2c0.1-8.7,6.6-9.7,13.6-9.6c36.4,0.1,72.7,0.1,109.1,0
		c7,0,13.5,0.9,13.7,9.6c0.1,9.3-6.9,10.2-14.1,10.2C290.7,113,272.6,113,254.6,113z"/>
	<path class="st1" d="M411.8,211.4c6.4,0,12.3,0,18.7,0c0,6.2,0,12.1,0,18.7c-6.2,0-12.1,0-18.7,0"/>
</g>
</svg>
