<?xml version="1.0" encoding="utf-8"?>
<!-- Generator: Adobe Illustrator 26.0.1, SVG Export Plug-In . SVG Version: 6.00 Build 0)  -->
<svg version="1.1" id="Capa_1" xmlns="http://www.w3.org/2000/svg" xmlns:xlink="http://www.w3.org/1999/xlink" x="0px" y="0px"
	 viewBox="0 0 501.8 501.8" style="enable-background:new 0 0 501.8 501.8;" xml:space="preserve">
<style type="text/css">
	.st0{fill:#2B4E9D;}
</style>
<g>
	<path class="st0" d="M20.8,126.8c10.2,0,19.5,0,29.8,0c0-35.5,0-70.2,0-105.2c3-0.2,5.1-0.6,7.2-0.6c45.5,0,90.9-0.1,136.4,0
		c23.4,0.1,43.3,8.9,60.4,25.6c2.1-1.8,4.2-3.5,6.2-5.2c14.6-12.5,31.6-20,50.8-20.2c47.9-0.5,95.8-0.2,143.7-0.2
		c0.9,0,1.8,0.3,3.6,0.7c0,34.6,0,69.2,0,104.8c10.3,0,19.6,0,29.6,0c0,111.1,0,221.4,0,333c-3.4,0-7,0-10.5,0
		c-53.4,0-106.8,0.1-160.2-0.1c-6.8,0-11.4,1.4-16.1,7.4c-24,30.8-70.4,30.4-94.3-0.5c-4.1-5.3-8.1-7-14.4-6.9
		c-53.7,0.2-107.4,0.1-161.1,0.1c-3.6,0-7.2,0-11.1,0C20.8,348.5,20.8,238.4,20.8,126.8z M443,354.5c0-107.2,0-212.3,0-317.5
		c-1.4-0.4-2.3-0.8-3.1-0.8c-42.1,0-84.2-0.3-126.3,0.1c-16.7,0.2-31.4,6.6-44,17.7c-5.1,4.5-7.5,9.3-7.5,16.5
		c0.4,47.9,0.2,95.8,0.2,143.7c0,3.3,0,6.6,0,10.4c-5.3,0-9.7,0-14.9,0c0-3.8,0-7.1,0-10.4c0-48.2,0.2-96.4-0.3-144.6
		c0-4.8-2.6-10.7-6-14.1c-13.5-13.7-30.6-19.4-49.7-19.4c-39.1,0-78.1,0-117.2,0c-2.6,0-5.2,0.4-7.6,0.6c0,106.1,0,211.2,0,317.8
		c68.8-5.6,129.7,11.8,180.9,62.6c0-60.4,0-118.2,0-175.9c5.4,0,9.7,0,15.2,0c0,58.3,0,116,0,175.3
		C313.7,366.1,374.3,348.9,443,354.5z M35.9,142.4c0,100.8,0,200.8,0,301.9c4,0,7.6,0,11.1,0c51.9,0,103.7,0.1,155.6-0.1
		c6.1,0,9.6,1.4,12.9,7.2c17.9,31.3,60.7,31.1,78.6-0.2c3.1-5.3,6.2-7,12.1-7c52.2,0.2,104.4,0.1,156.5,0.1c3.5,0,7.1,0,10.6,0
		c0-101.5,0-201.6,0-301.8c-4.9,0-9.1,0-14.5,0c0,75.6,0,150.7,0,226c-5.7,0.4-10.1,0.7-15.5,1.1c0,15.1,0,29.6,0,44.9
		c-19.6,0-38.1,0.1-56.7,0c-37.7-0.4-74.5,5.3-108.7,21.1c-16.7,7.7-30,7.5-46.6-0.1c-34.2-15.7-71-21.3-108.7-21
		c-18.5,0.2-37.1,0-56.9,0c0-15.6,0-30.3,0-45.1c-5.5-0.3-9.8-0.5-15.2-0.7c0-75.4,0-150.6,0-226.1C45.1,142.4,41,142.4,35.9,142.4z
		 M219.6,413.5c-40-33.5-86.2-47-138-44.3c0,10.2,0,19.7,0,29.9C128.6,398.3,174.9,398.2,219.6,413.5z M290.3,412.1
		c22.5-4,45.1-9.5,67.9-11.5c23.1-2,46.6-0.4,69.8-0.4c0-12,0-21.3,0-30.9C376.2,366.6,330.1,380,290.3,412.1z"/>
	<path class="st0" d="M164.9,80.8c22.2,3.9,28.6,13.5,23.6,35.8c-2.4,10.7-4.5,21.5-7.3,32.1c-1.2,4.5-0.4,6.9,3.7,9.6
		c20.4,13.9,28.7,34.9,22.6,59c-7.8,31-16.1,61.9-24.5,92.7c-3.6,13.3-13.9,20.9-26.7,20.8c-12.8-0.1-22.6-7.5-26.3-21.2
		c-8.4-30.5-16.8-61.1-24.5-91.8c-5.3-21.1-0.1-39.7,15.9-55.2c2.2-2.1,3.8-6.2,3.6-9.3c-1.2-21.3-2.8-42.6-4.5-63.9
		c-1.4-17.2,4.2-27.5,16.8-30C150.8,56.9,159.6,63.7,164.9,80.8z M135.3,270.4c3,11.6,5.7,22.1,8.4,32.6c1.8,6.9,4.9,13,13.2,12.7
		c7.7-0.3,10.5-5.8,12.3-12.6c7.6-29.1,15.7-58.2,23.2-87.3c1.4-5.5,2-11.5,1.5-17.1c-1.8-19.2-17.7-33.4-36.9-33.8
		c-18-0.3-33.6,12.3-36.4,30.3c11.8,0,23.6,0,35.2,0c0,5.4,0,9.8,0,15.1c-12.3,0-24,0-36.7,0c1.5,5.1,1.6,11.4,4.2,12.7
		c5,2.5,11.4,2.3,17.4,3.2c0,4.6,0,9.3,0,14c-4.6,0.3-8.5,0.6-13.1,0.9c1.3,5.2,2.5,9.7,3.8,14.7c8.6,0,16.5,0,24.6,0
		c0,5.1,0,9.5,0,14.7C149,270.4,142.8,270.4,135.3,270.4z M140.2,150.1c1.1,0.7,2.2,1.4,3.3,2.1c1.8-2.4,5-4.8,5-7.2
		c0.4-20.7,0.5-41.4-0.1-62.1c-0.1-2.9-4.5-5.7-6.9-8.6c-2.1,2.8-6.1,5.8-5.9,8.5C136.7,105.2,138.6,127.7,140.2,150.1z
		 M164.6,146.3c0.5,0.1,1.1,0.3,1.6,0.4c2.8-12.9,5.9-25.8,8.4-38.8c1.6-8.1-0.9-10.4-10.1-10.2
		C164.6,113.8,164.6,130.1,164.6,146.3z"/>
	<path class="st0" d="M346.5,112.3c4.5,0,8.6,0,13.9,0c0,9.4,0,18.7,0,25.9c15.4-1.7,29.9-3.3,44.3-4.9
		c4.5,27.5-11.3,44.1-43.4,47.3c-1.6,13.4-9.5,20.7-22.9,24.3c-25.3,6.9-40.3,30.2-37.9,56.5c2.2,23.8,22.1,43.7,46.8,46.7
		c23.8,2.9,47.7-12.5,55.7-35.7c8.2-23.9-1.8-49.9-24.2-63c-1.6-0.9-3.1-1.8-5.7-3.2c1.8-4.4,3.5-8.7,5.2-13
		c40.4,12.9,56,68.9,29.2,102.8c-19.4,24.6-49.2,33.6-77.7,23.4c-27.4-9.8-45.6-36.7-44.7-65.9c1-30.5,20.6-55.4,51-63.8
		c6.9-1.9,9.4-5.5,9.4-12.3c-0.1-20.7,0.1-41.5,0.1-62.2C345.7,114.6,346,114,346.5,112.3z M363.5,163.3c12.5,2.7,20.7-1.7,24.5-13
		C375.6,148.7,368.3,152.5,363.5,163.3z"/>
	<path class="st0" d="M368.5,65.9c0-4.8,0-9,0-13.9c19.8,0,39.4,0,59.6,0c0,4.4,0,8.9,0,13.9C408.7,65.9,389.1,65.9,368.5,65.9z"/>
	<path class="st0" d="M428.4,82.2c0,4.6,0,8.8,0,13.7c-19.7,0-39.2,0-59.5,0c0-4.2,0-8.6,0-13.7C388.2,82.2,407.8,82.2,428.4,82.2z"
		/>
	<path class="st0" d="M353.6,232.5c0-5.1,0-9.3,0-13.4c19.5-2,36.4,14.5,36.6,35.7c-4.4,0-8.8,0-14,0
		C374.3,242.7,367.4,234.5,353.6,232.5z"/>
</g>
</svg>
