<?xml version="1.0" encoding="utf-8"?>
<!-- Generator: Adobe Illustrator 26.0.1, SVG Export Plug-In . SVG Version: 6.00 Build 0)  -->
<svg version="1.1" id="Capa_1" xmlns="http://www.w3.org/2000/svg" xmlns:xlink="http://www.w3.org/1999/xlink" x="0px" y="0px"
	 viewBox="0 0 501.8 501.8" style="enable-background:new 0 0 501.8 501.8;" xml:space="preserve">
<style type="text/css">
	.st0{fill:#2B4E9D;}
</style>
<g>
	<path class="st0" d="M84.4,350.9c-20,0-39.2,0-58.5,0c-12.5,0-15.4-3.6-13.7-15.9c10.4-76.4,20.8-152.9,31.2-229.3
		c1.7-12.7,3.4-14.4,16.7-14.4c21.2,0,42.3,0.1,63.5-0.1c7-0.1,13,1.2,13.2,9.4c0.2,8.6-6.3,9.4-13.1,9.4c-19.2-0.1-38.5,0-59,0
		c14.1,87.1,27.9,173,42,259.7c3.9,0,7.2,0,10.6,0c51.7,0,103.4,0,155.1,0c2.8,0,6.4-0.8,8.2,0.5c3.1,2.3,7.2,6.1,7.1,9.2
		c-0.1,3-4.6,6.2-7.7,8.6c-1.4,1.1-4.2,0.3-6.4,0.3c-56.4,0-112.7,0-169.1,0c-12.3,0-14.2-1.8-16.1-14.2
		C87.1,366.6,85.8,359,84.4,350.9z M55.7,172.5c-0.8,0-1.6,0-2.4,0C46.2,225.4,39,278.3,31.7,331.5c17,0,33,0,49.7,0
		C72.8,278,64.3,225.2,55.7,172.5z"/>
	<path class="st0" d="M391.8,453.7c-53.9-0.1-98-44.4-97.6-98.3c0.4-53.6,44.2-97.2,97.8-97.2c54-0.1,98,44,97.9,97.9
		C489.9,410.2,446.1,453.8,391.8,453.7z M392,435c43.7,0.1,79-35,79.3-78.5c0.2-43.5-35-79.1-78.4-79.5C349,276.6,313,312.3,313,356
		C313,399.4,348.5,434.9,392,435z"/>
	<path class="st0" d="M340.9,121c0-13.5,0-26.8,0-40.6c-7.2-0.5-14.5-3.6-18.8,6.1c-0.8,1.9-6.5,3.3-8.9,2.3
		c-2.8-1.1-5.8-4.9-6.3-7.9c-1.7-9.4,6.7-18.7,17-19.6c5.3-0.5,10.6-0.3,15.9-0.1c12.4,0.3,19.5,7.2,20.4,19.6c0.2,3.1,0,6.2,0,10.5
		c4,0,7.3,0,10.6,0c19,0,38,0.1,57-0.1c7.3-0.1,12.1,2.4,13.3,10c8.2,51,16.4,101.9,24.6,152.9c1,6.5,1.2,13.3-7.4,14.4
		c-8.4,1.1-10.2-5.2-11.2-11.8c-7.5-46.4-15.1-92.7-22.3-139.1c-0.9-5.7-2.6-7.9-8.7-7.8c-18.3,0.4-36.6,0.1-54.5,0.1
		c-0.5,1.3-0.7,1.6-0.8,1.9c-3.1,26.5-11.7,32.8-38.2,28.2c-9.9-1.7-17.6-10.9-15.7-19.8c0.7-3.1,3.7-6.8,6.6-7.9
		c2.4-0.9,7.9,0.7,8.8,2.7C326.5,124.2,333.4,121.8,340.9,121z"/>
	<path class="st0" d="M172.3,91.1c16.3,0,31.2,0.1,46.1,0c6.7-0.1,12.1,1.8,12.3,9.4c0.2,7.8-5.3,9.5-12.1,9.4
		c-15.2-0.1-30.3,0-44.7,0c-0.9,1.2-1.2,1.4-1.3,1.6c-2.8,26.7-11,32.8-37.7,28.5c-9.1-1.5-16.9-9.1-16.2-17.6
		c0.3-3.6,3.3-8.1,6.4-9.9c2-1.2,8.4,0.7,9.4,2.8c4.2,9.4,11.4,5.9,18.5,5.7c0-13.7,0-26.9,0-41c-6.9,0.3-14.4-4.2-18.7,6
		c-0.8,1.9-7,3.3-9.7,2.3c-2.7-1-5.4-5.1-6-8.3c-0.6-3,0.9-6.7,2.5-9.6c5.3-9.6,20.8-13.3,36.5-9.1c9.1,2.4,14.2,9.9,14.5,21.3
		C172.3,85.3,172.3,87.7,172.3,91.1z"/>
	<path class="st0" d="M265.9,91.2c16,0,30.8,0.2,45.6-0.1c7.1-0.1,13.1,1.6,13.3,9.5c0.2,8.1-6.2,9.5-13.1,9.4
		c-14.8-0.2-29.7-0.1-44-0.1c-0.8,1.5-1.3,2-1.3,2.5c-1.6,25.3-16.8,35.3-41.1,26.9c-7.6-2.6-13.9-11.4-12.4-18.8
		c0.7-3.1,3.5-6.9,6.3-8.1c2.3-1,8.1,0.5,8.9,2.3c4,9.1,11.1,7,19.1,6.4c0-6.8,0-13.6,0-20.3c0-6.8,0-13.5,0-21
		c-7.4,0.5-14.7-3.4-18.8,6.2c-0.8,2-7,3.4-9.7,2.4c-2.7-1-5.4-5.2-5.8-8.3c-1.3-9.1,6.8-18.1,16.6-19c6.5-0.6,13.1-0.5,19.6,0
		c9.2,0.7,16,7.8,16.8,17.1C266.2,82,265.9,85.7,265.9,91.2z"/>
	<path class="st0" d="M201.6,173.2c2.5,0,5.6-1,7.3,0.2c3.2,2.2,7.6,5.5,7.7,8.5c0.1,3.1-3.7,8.1-6.9,9.1
		c-4.7,1.6-10.8,1.8-15.5,0.2c-3.5-1.2-8-6.2-7.8-9.3c0.1-3,5.3-6.2,8.8-8.6C196.7,172.3,199.4,173.2,201.6,173.2
		C201.6,173.2,201.6,173.2,201.6,173.2z"/>
	<path class="st0" d="M319.8,173.1c1.9,0,3.7-0.1,5.6,0c5.8,0.2,10.5,3.4,9.2,9c-0.8,3.7-5.4,7.5-9.2,9.3c-3.3,1.5-8.5,1.5-11.8,0
		c-3.9-1.8-8.8-5.5-9.4-9.1c-1-5.9,3.8-9.3,10.1-9.2C316,173.1,317.9,173.1,319.8,173.1z"/>
	<path class="st0" d="M207.7,249.3c-0.4,0-3.8,0.6-5.7-0.8c-2.9-2.2-6.9-6-6.5-8.6c0.4-3.3,4.3-7.3,7.6-8.6
		c3.7-1.5,8.6-0.6,12.9-0.5c6.1,0,10.5,2.8,10.4,9.3c-0.1,6.5-4.6,9-10.6,9.3C213.9,249.4,212,249.3,207.7,249.3z"/>
	<path class="st0" d="M329.1,230.8c2.2,0,4.9-0.8,6.4,0.2c3.2,2.2,8.3,5.5,8.1,8.1c-0.3,3.5-4.1,8.4-7.5,9.6
		c-4.7,1.6-10.7,1.5-15.5,0c-3.2-1-7.7-6.2-7.3-8.7c0.5-3.4,5.1-6.6,8.5-8.9C323.5,229.8,326.6,230.8,329.1,230.8
		C329.1,230.8,329.1,230.8,329.1,230.8z"/>
	<path class="st0" d="M219.4,306.8c-2.5-0.2-5.9,0.5-7.9-0.8c-3-2-6.4-5.4-6.8-8.5c-0.3-2.6,3.1-7.7,5.6-8.2
		c6.2-1.2,13-1.4,19.2-0.1c2.6,0.5,6,6,5.8,8.9c-0.2,2.9-4.2,6.1-7.3,8C225.8,307.4,222.5,306.7,219.4,306.8z"/>
	<path class="st0" d="M142.7,192c-2.8-0.2-6.3,0.7-8.2-0.7c-3-2.3-7-6.2-6.8-9.3c0.1-3,4.4-7.3,7.6-8.3c4.5-1.4,10.2-1.4,14.7,0
		c3.4,1.1,7.7,5.3,7.9,8.3c0.1,3.1-3.9,7-7,9.3C149.1,192.7,145.5,191.8,142.7,192z"/>
	<path class="st0" d="M261.1,173.2c2.2,0,4.9-0.8,6.4,0.2c3.2,2.3,8.3,5.6,8.1,8.2c-0.3,3.5-4.1,8-7.5,9.6
		c-3.6,1.7-8.5,0.7-12.8,0.5c-6-0.2-10.3-3-10.2-9.6c0.1-6.6,4.4-9.1,10.5-9.1C257.4,173.1,259.3,173.1,261.1,173.2
		C261.1,173.1,261.1,173.2,261.1,173.2z"/>
	<path class="st0" d="M378.5,192.1c-3.1-0.3-7,0.6-9-1c-3-2.3-6.2-6.4-6.2-9.8c0-2.7,4.2-6.5,7.4-7.7c3.5-1.4,8-0.3,12-0.5
		c6.6-0.2,11.2,2.6,11.2,9.5c0,6.3-4.5,9.1-10.6,9.3c-1.6,0-3.1,0-4.7,0C378.5,191.9,378.5,192,378.5,192.1z"/>
	<path class="st0" d="M151.2,250.5c-4.2-1.4-10-1.5-11.7-4.3c-2-3.1-0.7-12.4-0.3-12.4c8.5-0.7,17-0.5,25.5-0.5
		c0,4.4,1.6,10.2-0.6,12.9C161.8,249.1,155.9,249.1,151.2,250.5z"/>
	<path class="st0" d="M270.1,230.5c2.5,0.1,5.5-0.6,7.3,0.6c3,2,7.3,5.2,7.3,7.9c-0.1,3.3-3.4,8.3-6.4,9.4
		c-4.7,1.7-10.7,1.9-15.4,0.4c-3.5-1.1-7.6-5.4-8.3-9c-1.2-5.7,3.3-8.8,9.1-9.1c2.2-0.1,4.3,0,6.5,0
		C270.1,230.7,270.1,230.6,270.1,230.5z"/>
	<path class="st0" d="M387.8,230.5c2.5,0.1,5.5-0.6,7.3,0.6c3,2,7.4,5.2,7.3,7.8c-0.1,3.3-3.3,8.3-6.4,9.4
		c-4.7,1.7-10.7,1.9-15.4,0.5c-3.5-1.1-7.6-5.4-8.3-8.9c-1.2-5.7,3.3-8.8,9.1-9.1c2.2-0.1,4.3,0,6.5,0
		C387.8,230.7,387.8,230.6,387.8,230.5z"/>
	<path class="st0" d="M278,307.7c-4-1.3-9.9-1.4-11.5-4.1c-2-3.1-1.9-9.5,0.1-12.7c3-4.9,21.1-4.2,25.1,0c4,4.3,4.3,9.6-0.3,13
		C288,306.3,282.9,306.4,278,307.7z"/>
	<path class="st0" d="M160.4,307.7c-4.1-1.3-9.9-1.4-11.6-4.1c-2-3.1-2-9.5,0-12.7c2.9-4.9,21.1-4.3,25.1,0c4,4.3,4.4,9.6-0.3,13
		C170.3,306.3,165.2,306.4,160.4,307.7z"/>
	<path class="st0" d="M377.1,365.8c15.6-15.8,29.1-29.4,42.6-43.2c4.7-4.8,10-8.8,15.9-3c6.4,6.3,2,11.6-3,16.6
		c-15,14.9-29.9,29.9-44.8,44.8c-7.9,7.9-11.8,7.9-19.5,0.3c-6.4-6.3-12.8-12.7-19.1-19.1c-4.3-4.4-5.3-9.4-0.9-14
		c4.5-4.7,9.6-3.8,13.9,0.7C367.1,354,371.6,359.4,377.1,365.8z"/>
</g>
</svg>
