<?xml version="1.0" encoding="utf-8"?>
<!-- Generator: Adobe Illustrator 26.0.1, SVG Export Plug-In . SVG Version: 6.00 Build 0)  -->
<svg version="1.1" id="Capa_1" xmlns="http://www.w3.org/2000/svg" xmlns:xlink="http://www.w3.org/1999/xlink" x="0px" y="0px"
	 viewBox="0 0 501.8 501.8" style="enable-background:new 0 0 501.8 501.8;" xml:space="preserve">
<style type="text/css">
	.st0{fill:#2B4E9D;}
</style>
<g>
	<path class="st0" d="M364.8,242.8c8.4-18.1,20.5-33.4,37.2-44.7c2.6-1.7,5.2-4.3,7.9-4.5c3.7-0.3,7.5,1.4,11.2,2.2
		c-0.9,3.5-0.6,8.2-2.8,10.3c-5.7,5.5-12.9,9.5-18.8,14.8c-14,12.8-22.8,28.5-25.2,48.3c62.8-23.6,112.6,17.3,111.5,72.9
		c-0.5,23.4,1.6,46.8-6.5,69.6c-16,44.7-53.9,72.2-101.3,72c-14.8,0-29.5-1.5-44.3-1.7c-6.7-0.1-13.4,1.7-20.1,1.7
		c-90.7,0.1-181.4,0.1-272,0.1c-21.1,0-29.6-8.5-29.6-29.7c0-122.4,0-244.9,0-367.3c0-20.8,8.3-29.1,29.1-29.2c3.7,0,7.4-0.1,11.1,0
		c8.9,0.3,16.9,0.7,23-8.9c2.7-4.3,11.1-6.3,17.2-6.8c11.3-1.1,22.8,0.1,34.2-0.6c3.1-0.2,7.4-2.5,8.9-5.2
		c9.3-16.4,23.1-25.7,41.9-25.9c19.2-0.2,33.3,9.1,42.8,25.9c1.5,2.7,5.8,5,9,5.2c11.1,0.6,22.2,0.3,33.3,0.2
		c9.3-0.1,16.4,3.6,22.3,11c2,2.6,6.2,4.5,9.6,4.8c8,0.7,16,0.1,24,0.3c16.1,0.4,25.1,9.4,25.2,25.5c0.1,40.7,0.1,81.4,0,122.1
		c0,5.9,1.5,10.1,5.6,14.7C355,226.9,359.5,235,364.8,242.8z M296.3,105.9c-0.8-0.8-1.7-1.5-2.5-2.3c-3,1.8-6.9,2.9-8.7,5.4
		c-5.7,8.1-13.2,11.7-22.8,11.7c-56.4,0-112.9,0-169.3,0c-9.2,0-16.5-3.5-22.1-11.3c-2-2.7-5.9-4-10.7-7.1c0,113.1,0,223,0,333.4
		c68.8,0,137.1,0,205.6,0c-0.2-1.4-0.1-2.4-0.5-3.1c-20.8-34.5-17.8-72.1-14.4-109.7c0.6-6.5,3.6-13,6.4-19.1
		c6.9-15,18.7-25.6,33.3-34.3c-15.4-15.8-18.7-34.7-17.5-55.1c0.5-8.1,4.6-13.5,12.3-13.4c10.7,0.1,11.8-5.4,11.2-13.9
		c-0.6-8-0.1-16-0.1-24C296.3,144.1,296.3,125,296.3,105.9z M469.9,358.5c0-4.3,0-8.6,0-12.9c-0.1-46.8-28-71.9-74.4-66.9
		c-9.1,1-16.7,7.1-19,16.4c-1.1,4.4-0.2,9.4-1.7,13.6c-1.2,3.4-4.2,7.9-7.2,8.6c-5.6,1.3-7.9-3.2-8.1-8.6c-0.1-2.5,0.1-4.9-0.1-7.4
		c-1.1-13.9-10.2-22.5-24.1-22.7c-3.7-0.1-7.4,0-11.1,0c-32.4,0.1-57.1,22.7-58.9,55.2c-1,17.2-0.9,34.6,0.4,51.7
		c3,39,32.7,73.5,70.4,80.4c15.9,2.9,32.5,2.1,48.8,1.7c28.5-0.7,50.4-14.4,66.9-37.1C467.6,409,471.3,384.4,469.9,358.5z
		 M66.9,73.2c-8.5,0-15.9,0-23.2,0c-14.7,0-15.8,1.1-15.8,15.7c0,121.1,0,242.3,0,363.4c0,14.6,1,15.6,15.9,15.6
		c80.8,0,161.5,0,242.3,0c3.2,0,6.4,0,11,0c-9.9-11.3-19.4-16.2-33.6-16c-65.6,0.9-131.3,0.4-197,0.4c-18.3,0-22.9-4.6-22.9-22.9
		c0-105.7,0-211.5,0-317.2c0-2.5-0.1-4.9,0.1-7.4c0.7-9.2,6.1-14.6,15.2-15.5c2.7-0.3,5.3-0.5,8.2-0.8
		C66.9,83.3,66.9,78.8,66.9,73.2z M177.1,104.7c28.1,0,56.1-0.1,84.2,0.1c7.8,0.1,11.5-3.1,11.4-10.9c-0.1-8.3-0.1-16.6,0-25
		c0.1-7.7-3.2-11.4-11.1-11.3c-13.6,0.2-27.1-0.1-40.7,0.1c-6.7,0.1-10.8-2.1-13.1-8.9c-5-14.8-16-22.7-30.2-22.7
		c-13.9,0-25,7.8-29.8,22c-2.4,7.2-6.5,9.7-13.6,9.6c-13.3-0.2-26.5,0.2-39.8-0.1c-8.4-0.2-11.7,3.7-11.6,11.7
		c0.2,7.7-0.1,15.4,0.1,23.1c0.2,10.3,2.2,12.2,12.7,12.2C122.9,104.7,150,104.7,177.1,104.7z M288.5,88.1
		c22.5,3.9,23.4,5,23.4,27.7c0,28,0,56.1,0,84.2c5.5,1.4,10.4,2.7,16,4.1c0-10.1,0-19,0-27.9c0-29.9,0-59.8,0-89.7
		c0-5.8-0.2-12.3-7.4-12.9c-10.6-0.9-21.3-0.2-32.1-0.2C288.5,79,288.5,83.3,288.5,88.1z M351.2,262.8c-2.9-25-15.7-42.5-38-45.9
		c-27.6-4.1-27.9-2.8-22,23.6c3.5,16.1,14,22.6,30.2,22.3C331.1,262.7,340.9,262.8,351.2,262.8z"/>
	<path class="st0" d="M102.7,341.6c-3.7,0-7.4,0.1-11.1,0c-10-0.4-16-6.1-16.5-16.1c-0.4-7.7-0.4-15.4,0-23
		c0.5-9.5,6.1-15.3,15.8-16c7.6-0.5,15.4-0.5,23-0.1c10.5,0.6,16.1,6.6,16.4,17.2c0.2,6.1,0.1,12.3,0,18.4
		c-0.1,14.1-5.4,19.4-19.5,19.6C108.2,341.6,105.4,341.6,102.7,341.6z M91.5,325.1c23.5,3.3,27.2-0.6,21.6-22c-7.1,0-14.3,0-21.6,0
		C91.5,310.7,91.5,317.7,91.5,325.1z"/>
	<path class="st0" d="M130.4,385.7c0,3.4,0.1,6.8,0,10.1c-0.4,10.2-5.6,16.2-15.7,16.9c-7.9,0.5-16,0.5-23.9,0
		c-9.6-0.6-15.2-6.4-15.6-16c-0.4-7.7-0.4-15.4,0-23c0.5-9.9,6.5-15.5,16.6-15.9c6.4-0.2,12.9-0.1,19.3-0.1
		c14,0.2,19.2,5.5,19.3,19.7C130.5,380.1,130.5,382.9,130.4,385.7z M114,396.4c0-7.7,0-14.9,0-22.6c-7.7,0-14.8,0-22.4,0
		c0,7.8,0,15,0,22.6C99.3,396.4,106.4,396.4,114,396.4z"/>
	<path class="st0" d="M103.1,215.5c4,0,8-0.2,12,0c8.5,0.6,14.7,6.1,15.2,14.4c0.5,8.6,0.6,17.2,0,25.8c-0.6,8.9-6.2,14.1-14.9,14.8
		c-8.2,0.7-16.6,0.6-24.9,0c-9.3-0.6-14.9-6.8-15.4-16.3c-0.3-6.7-0.2-13.5-0.1-20.3c0.2-12.7,6-18.4,18.8-18.6
		C96.9,215.4,100,215.4,103.1,215.5C103.1,215.5,103.1,215.5,103.1,215.5z M91.9,231.7c0,8.1,0,15.3,0,22.5c7.7,0,14.6,0,22.1,0
		c0-7.7,0-14.8,0-22.5C106.4,231.7,99.5,231.7,91.9,231.7z"/>
	<path class="st0" d="M130.4,172.7c0,3.4,0.1,6.8,0,10.1c-0.4,10.3-5.8,16.1-15.9,16.6c-8,0.4-16,0.4-23.9,0
		c-9.1-0.5-14.8-6-15.4-15.1c-0.5-8-0.5-16,0-23.9c0.5-9.5,6.2-15.1,15.9-15.7c6.4-0.4,12.9-0.2,19.3-0.2c14.7,0.2,20,5.5,20.1,20
		C130.5,167.1,130.5,169.9,130.4,172.7z M114,160.6c-8,0-15,0-22.1,0c0,7.9,0,15.3,0,22.8c7.7,0,14.6,0,22.1,0
		C114,175.6,114,168.4,114,160.6z"/>
	<path class="st0" d="M209,184c-16.9,0-33.8,0-50.7,0c-6,0-11.8-0.8-11.5-8.4c0.2-7.1,6-7.6,11.5-7.6c34.1,0,68.2,0,102.4,0
		c6,0,11.9,1.1,11.6,8.5c-0.2,6.7-5.9,7.7-11.6,7.6C243.4,183.9,226.2,184,209,184z"/>
	<path class="st0" d="M197.1,254.7c-13.2,0-26.5,0-39.7,0c-5.8,0-11-1-10.7-8.2c0.3-6.6,5.4-7.3,10.7-7.3c26.8,0,53.6,0,80.4,0
		c5.8,0,11,1.2,10.7,8.2c-0.3,6.4-5.4,7.4-10.7,7.3C224.3,254.7,210.7,254.7,197.1,254.7z"/>
	<path class="st0" d="M190.7,310c10.5,0,20.9,0,31.4,0c5.4,0,10.3,1.2,10.5,7.6c0.3,7.1-5,8.4-10.7,8.4c-21.5,0.1-43.1,0.1-64.6,0
		c-5.3,0-10.4-1.2-10.5-7.7c-0.2-7,4.9-8.4,10.7-8.4C168.5,310.1,179.6,310,190.7,310z"/>
	<path class="st0" d="M189.7,397c-11.1,0-22.2,0.6-33.2-0.3c-3.4-0.3-8.7-4.1-9.4-7.1c-1.5-6.3,3.9-8.2,9.3-8.2
		c22.1-0.1,44.3-0.1,66.4,0c5.4,0,10.8,1.9,9.4,8.2c-0.7,3.1-5.9,6.9-9.4,7.1C211.9,397.5,200.7,397,189.7,397z"/>
	<path class="st0" d="M280.2,341.4c1.7-21,8.7-35.3,24.6-44.3c4.8-2.7,10.3-4.6,13.7,1.5c3.3,6-0.7,9.5-5.9,12.3
		c-9.7,5.3-14.4,13.9-15.8,24.6c-0.2,1.5-0.2,3.1-0.4,4.6c-0.7,5.3-2.8,10.7-9,8.8C284,347.7,281.6,342.9,280.2,341.4z"/>
	<path class="st0" d="M198.1,73.2c15.7,0,31.4,0,47,0c5.6,0,11.1,0.7,11.2,7.8c0.2,7.1-5.3,8.2-10.9,8.2c-32,0.1-63.9,0-95.9,0
		c-5.8,0-11.1-1.6-10.9-8.3c0.2-6.7,5.7-7.8,11.4-7.8C166.1,73.2,182.1,73.2,198.1,73.2z"/>
	<path class="st0" d="M112.9,71.4c3.2,3.2,8.7,6.3,9,9.8c0.7,7.1-5.7,8.2-11.6,8.1c-5.6-0.1-11.1-1.2-11.1-8
		C99.2,73.8,105.2,73.1,112.9,71.4z"/>
</g>
</svg>
