<?xml version="1.0" encoding="utf-8"?>
<!-- Generator: Adobe Illustrator 26.0.1, SVG Export Plug-In . SVG Version: 6.00 Build 0)  -->
<svg version="1.1" id="Capa_1" xmlns="http://www.w3.org/2000/svg" xmlns:xlink="http://www.w3.org/1999/xlink" x="0px" y="0px"
	 viewBox="0 0 501.8 501.8" style="enable-background:new 0 0 501.8 501.8;" xml:space="preserve">
<style type="text/css">
	.st0{fill:#2B4E9D;}
</style>
<g>
	<path class="st0" d="M293.1,446.6c4.8,0.5,8.3,0.7,11.6,1.3c12.6,2.1,20.7,11.8,20.4,24.3c-0.3,12.2-9.3,22.9-21.7,23.1
		c-33.6,0.6-67.2,0.6-100.8,0c-12.3-0.2-21.5-10.9-21.9-23c-0.4-12.2,7.9-22.3,20.3-24.4c3.4-0.6,6.8-0.8,10.9-1.3
		c0-15.4,0-30.6,0-47.4c-12.3,0-24.7,0.6-37.1-0.2c-16.4-1.1-31.4,2.4-46.4,9.3c-19.9,9.2-40.8,16.3-60.7,25.5
		c-23.8,10.9-44-0.4-51.4-16.3c-7.5-16.2-3-40.3,21.6-49.9c0.8-0.3,1.5-1,2.6-1.7c-1.3-4.2-3.1-8.2-3.9-12.4
		c-3.3-17.1,4.5-33.1,20.8-40.2c26.2-11.4,52.5-22.5,79.2-32.5c8.1-3.1,17.8-2.2,27.3-3.2c0-7.3,0-14.6,0-23.2
		c-10.4,0-20.6,0-30.9,0c-18.2,0-36.4,0.1-54.7,0c-16.7-0.1-26.3-9.7-26.7-26.3c-0.2-7.5,0-15.1,0-22.6c0-20,4.4-26.2,24.3-32.6
		c0-18-0.3-36.5,0.1-54.9c0.5-21.8,19-36.4,39.7-31.4c19.6,4.8,27.2,22.4,23.9,41c-0.4,2.3-4.8,5.5-7.4,5.5c-2.5,0-6.1-3.2-7.1-5.8
		c-1.4-3.6-0.6-8.1-1.3-12.1c-1.5-8.6-8.2-14.3-16.5-13.5c-8.6,0.8-14.4,5.6-14.7,14.3c-0.5,18.8-0.2,37.6-0.2,57
		c24,0,47.4,0,72.1,0c0-17.9,0.1-35.7,0-53.4c-0.2-18,3.8-35,13.2-50.3c19.3-31.9,48.1-47.3,85.2-48.5c5.8-0.2,11.7-1.5,17.1-3.6
		c24-9.5,53.4-1.1,68.2,19.9c5,7.2,4.6,14.6-1.3,20.6c-18.9,19.3-38,38.4-57.3,57.3c-6.8,6.6-15.5,5.8-22.9-0.7
		c-12.2-10.8-20-24-21.6-40.5c-14.9,2.6-30.1,18.1-31,35.1c-1.3,26.6-0.4,53.3-0.4,81.1c10.9,0,21.8,0,32.7,0
		c10.7,0,21.4-0.3,32,0.2c12.9,0.6,22.3,10.7,22.5,23.3c0.3,12.9-8.4,23.5-21.4,24.1c-18.2,0.9-36.4,0.4-54.6,0.6
		c-3.7,0-7.3,0-11.4,0c0,14,0,26.7,0,40.2c18.8,0,37,0.3,55.1-0.3c3.2-0.1,6.9-2.9,9.4-5.4c21.3-21,42.2-42.2,63.5-63.1
		c4-3.9,4.3-7.1,2.5-12.3c-11.4-33.5,7.3-68.4,41.2-77.8c32.6-9,66.3,11.3,74.1,45.1c1.5,6.3,3.4,9.6,10.4,11.7
		c23.1,6.9,31.9,34.7,18,54.4c-2.5,3.6-5.7,6.7-8.8,9.8c-42.6,42.7-85.4,85.2-127.9,128c-14.8,14.9-31.5,25.6-52.5,29.4
		c-2.1,0.4-5.1,3.7-5.2,5.8C292.9,417.8,293.1,431.9,293.1,446.6z M217.8,342.9c-19.8,0-39.6-0.4-59.4,0.2
		c-9.3,0.3-19.2,0.9-27.7,4.1c-30.1,11.6-59.9,24.1-89.5,37c-5.1,2.2-9.7,8-12.1,13.2c-3.3,7-0.8,14.3,5,19.7
		c6.7,6.3,14.5,6.9,22.7,3.5c27-11.1,53.8-22.5,80.9-33.2c7.1-2.8,15.1-4.4,22.8-4.5c39.3-0.4,78.5-0.6,117.8,0
		c24.2,0.4,43.7-8.2,60.6-25.2c42.6-43.1,85.7-85.8,128.5-128.7c2.4-2.4,5-4.9,6.9-7.7c5.5-7.8,4.6-18.4-1.8-25.1
		c-6.6-6.8-17-8.2-25-2.9c-3.4,2.2-6.2,5.2-9.1,8.1c-43.6,43.5-87.1,87-130.5,130.6c-7.3,7.4-15.4,11-26,10.8
		C260.6,342.6,239.2,342.9,217.8,342.9z M354.8,218.9c-20.5,20.6-41.7,41.1-62,62.5c-9.2,9.7-19.2,13.5-32.5,13.3
		c-35.5-0.6-70.9-0.2-106.4-0.2c-3.7,0-7.8-0.3-11.1,1.1c-26.7,10.8-53.5,21.6-79.9,33.1c-9.3,4-12.7,14.6-9.8,23.9
		c1.8,5.6,4.3,7.4,10.3,4.8c16.9-7.4,34.2-14.1,51.1-21.4c15.2-6.6,31-9.5,47.6-9.4c39.2,0.2,78.5-0.1,117.7,0.2
		c7.5,0.1,13-2.1,18.2-7.4c25.3-25.7,51-51.1,76.5-76.7c2.1-2.1,4.1-4.5,6.1-6.6C372,230.3,364,225,354.8,218.9z M356.9,177.9
		c0,18.7,11.2,34.6,28.6,41.3c6.1,2.4,10.8,2.2,15.8-3.2c11.6-12.2,23.3-24.7,36.5-35.1c6.8-5.4,7-9.6,4.9-16.3
		c-6.5-20.4-27.4-33.7-48.2-30.4C372.7,137.6,356.9,156,356.9,177.9z M164.2,190.2c-29.6,0-58.4,0-87.2,0c-6.3,0-8.9,3.8-8.9,9.7
		c0,7.8,0,15.7,0,23.5c0,13.4,1.3,14.7,14.4,14.7c24.2,0.1,48.3,0,72.5,0c3,0,6-0.4,9.2-0.7C164.2,221.6,164.2,206.6,164.2,190.2z
		 M253.4,38c-2.2,0.1-3.4,0.1-4.6,0.3c-41.4,7.3-67.9,39.5-68.1,83.2c-0.3,49.3-0.1,98.5,0,147.8c0,3,0.4,6,0.6,8.8
		c5.6,0,10.2,0,15.5,0c0-4,0-7.4,0-10.8c0-49.6-0.3-99.2,0.1-148.7c0.2-27.7,13.2-48.6,38.7-59.2C246,54.9,250.2,48.2,253.4,38z
		 M334.4,46.2c-11.7-14.1-26.3-20.7-44.3-15.7c-16.3,4.5-26.3,15.9-28.9,32.6c-2.6,16.6,4.2,29.7,16.8,39.4
		C297,83.6,315.4,65.2,334.4,46.2z M229.3,446.6c16,0,31.4,0,47.3,0c0-15.9,0-31.1,0-46.7c-16.1,0-31.5,0-47.3,0
		C229.3,415.7,229.3,430.9,229.3,446.6z M253.3,463.6c-14.7,0-29.5,0.1-44.2,0c-6.1,0-12.2,0.6-12,8.3c0.2,7.1,6.2,7.6,11.8,7.6
		c29.5,0,59,0,88.5,0c5.7,0,11.5-0.7,11.5-7.9c0-7-5.4-8.1-11.3-8.1C282.8,463.7,268.1,463.6,253.3,463.6z M214.1,222.2
		c19.2,0,38.6,0,58,0c6,0,12.5-0.3,12.6-7.8c0.1-8.3-6.9-8.4-13-8.4c-15.4,0-30.8,0-46.2,0C211.4,206,211.2,206.3,214.1,222.2z"/>
	<path class="st0" d="M292.7,125c1.8-1.8,3.9-5.8,6.6-6.3c2.8-0.5,8.2,1.8,8.9,4.1c3.7,11.3,6.6,22.8,8.7,34.5
		c0.4,2.3-3.4,7.2-6,7.8c-2.5,0.6-7.8-2.2-8.6-4.7C298.6,149.5,296.1,138.1,292.7,125z"/>
	<path class="st0" d="M390.3,85.9c-13.1-3.3-24.4-5.7-35.4-9.3c-2.5-0.8-5.6-6.4-4.9-8.4c1.1-2.8,5.9-6.5,8.5-6.1
		c11.3,1.9,22.6,4.7,33.5,8.2c2.4,0.8,5.3,5.9,4.8,8.5C396.4,81.6,392.3,83.9,390.3,85.9z"/>
	<path class="st0" d="M357.2,117.3c-0.3,6.5-6.7,10.6-11.5,6.8c-6.8-5.4-13-11.8-18.5-18.5c-1.4-1.7-0.6-6.9,1-9.1
		c1.3-1.8,6.8-3,8.2-1.8c7.1,6,13.6,12.9,20.1,19.6C357.2,115,357,116.6,357.2,117.3z"/>
</g>
</svg>
