<?xml version="1.0" encoding="utf-8"?>
<!-- Generator: Adobe Illustrator 26.0.1, SVG Export Plug-In . SVG Version: 6.00 Build 0)  -->
<svg version="1.1" id="Capa_1" xmlns="http://www.w3.org/2000/svg" xmlns:xlink="http://www.w3.org/1999/xlink" x="0px" y="0px"
	 viewBox="0 0 501.8 501.8" style="enable-background:new 0 0 501.8 501.8;" xml:space="preserve">
<style type="text/css">
	.st0{fill:#2B4E9D;}
</style>
<g>
	<path class="st0" d="M474.9,212.5c0.2,27.7-5.7,54-16.4,79.5c-1.8,4.2-2.1,10-0.7,14.4c7.3,22.8,15,45.4,23.1,67.9
		c4.6,12.9,3.8,24.6-5.9,34.5c-10,10.2-22,11.3-35.2,6.6c-22.2-7.9-44.7-15.1-66.9-23.2c-5.9-2.2-10.8-1.7-16.4,0.8
		c-21.2,9.5-43.5,14.5-66.7,16.2c-3.4,0.2-7.6,2.2-9.8,4.8c-44.2,51.6-105.5,67.3-168.1,42.9c-3.5-1.4-8.3-1.4-11.9-0.3
		c-15.3,4.8-30.4,10.2-45.5,15.6c-11,3.9-21,2.7-29.3-5.9c-8.1-8.3-8.8-18.1-5-28.7C25.6,422.8,31,408,35.6,393
		c1.3-4.1,1.1-9.6-0.5-13.6c-23.7-59.6-7.6-123.7,41.5-165.5c2.7-2.3,4.9-6.9,5-10.5c4.2-95.6,78.6-175.3,174-186
		C372.9,4.2,475,95.1,474.9,212.5z M456.9,391.3c-1.7-5.6-2.4-8.5-3.4-11.2c-8-23.5-15.8-47-24.3-70.4c-3.1-8.6-2.8-15.9,1.4-24.2
		c10.6-20.8,15.9-43.2,16.6-66.5C450.4,115.8,363.2,34.8,260,44.9c-99.2,9.7-169.7,108.3-146.5,204.9
		C139.4,357.1,253.6,411.6,353.1,364c6.8-3.2,13-3.6,20-1.1c24,8.5,48.1,16.6,72.1,24.8C448.3,388.7,451.3,389.6,456.9,391.3z
		 M83.6,246c-2.6,2.8-4.8,4.7-6.6,7.1c-26,34.6-32.5,72.8-16.7,113c5.8,14.6,6.1,26.6,0.2,40.5c-5,11.8-8.3,24.2-13.1,38.5
		c17.9-6.1,33.7-10.9,49.1-16.8c8.1-3.1,14.9-2.5,22.5,1.1c22.8,11.1,47,13.5,71.7,8.6c21.7-4.3,40.6-14,56.9-30.1
		C159.1,388,104.9,334.8,83.6,246z"/>
	<path class="st0" d="M277.5,223.8c-26,0-52.1,0.1-78.1,0c-11.1,0-17.6-5.3-17.5-13.9c0.1-8.6,6.6-13.7,17.8-13.7
		c52.7,0,105.4-0.2,158,0.3c5.1,0.1,11.5,3.6,14.9,7.6c2.2,2.5,1.8,10.4-0.6,13c-3.3,3.6-9.6,6.3-14.6,6.4
		C330.8,224.1,304.1,223.8,277.5,223.8z"/>
	<path class="st0" d="M279.1,139.3c26,0,52.1,0,78.1,0c11.2,0,17.5,5.2,17.4,13.9c-0.1,8.7-6.5,13.7-17.7,13.7c-53,0-106,0.1-159,0
		c-9.8,0-15.9-5.4-16.1-13.5c-0.2-8.4,6.1-13.8,16.4-14.1c2.1,0,4.2,0,6.4,0C229.5,139.3,254.3,139.3,279.1,139.3z"/>
	<path class="st0" d="M246.4,253.1c15.7,0,31.5-0.1,47.2,0c11.3,0.1,17.5,5.2,17.4,14c-0.1,8.8-6.2,13.9-17.6,13.9
		c-31.5,0.1-63,0.1-94.5,0c-10.6,0-16.8-5.3-17.1-13.6c-0.3-8.6,6.3-14.1,17.2-14.4c1.8-0.1,3.6,0,5.4,0
		C218.5,253.1,232.4,253.1,246.4,253.1z"/>
</g>
</svg>
