<?xml version="1.0" encoding="utf-8"?>
<!-- Generator: Adobe Illustrator 26.0.1, SVG Export Plug-In . SVG Version: 6.00 Build 0)  -->
<svg version="1.1" id="Capa_1" xmlns="http://www.w3.org/2000/svg" xmlns:xlink="http://www.w3.org/1999/xlink" x="0px" y="0px"
	 viewBox="0 0 501.8 501.8" style="enable-background:new 0 0 501.8 501.8;" xml:space="preserve">
<style type="text/css">
	.st0{fill:#2B4E9D;}
	.st1{fill:#FFFFFF;}
</style>
<g>
	<path class="st0" d="M470.8,106.7c-2.3,9.2-4.6,18.3-6.9,27.5c-0.1,0.4-0.2,0.9-0.4,1.2c-7.1,10.9-7.2,23.3-7.7,35.7
		c-0.2,5.1-1.2,10.1-1.9,15.2c-0.8,5.4-3.7,9.5-8.6,12c-14.6,7.4-30,9.9-46.3,7.5c-1.7-0.2-3.9,0.2-5.3,1.1
		c-8.4,5.6-17.8,7.9-27.5,9.3c-11.7,1.7-23.5,2.9-35.1-0.7c-0.9-0.3-2.2,0.7-3.3,1.3c-4.3,2-8.3,5.2-12.8,6
		c-16.8,3.1-33.9,4.2-51,2.2c-4.6-0.5-8.9-4.3-13.4-4.3c-4.3,0-8.5,3.7-13,4.3c-16.9,2-33.8,1-50.5-2.1c-4.6-0.8-8.8-4.1-13.2-6
		c-1.4-0.6-3.1-1.2-4.5-0.9c-19.8,3.9-39,1.7-57.2-6.8c-4.9-2.3-8.8-3.5-14.4-2.9c-12.8,1.4-25.3-1-37.2-5.8
		c-7.6-3.1-12.7-8.1-13.3-16.8c-0.7-9.9-1.4-19.8-2.3-29.6c-0.2-2.4-0.6-4.9-1.7-7c-5.8-11.7-10-23.9-11.6-36.9
		c-0.1-1.1-0.5-2.2-0.8-3.4c0-5.8,0-11.7,0-17.5c0.9-4.3,1.6-8.6,2.6-12.8c6.3-25.3,21.9-39.6,46.9-43.2c14.9-2.1,29.7-1.6,44.5,0.3
		c34.6,4.5,67.8,14.4,100,27.9c17.2,7.2,34.1,7,51.5,0.3c16.6-6.4,33.3-12.6,50.3-17.6c28.1-8.3,56.7-13.6,86.3-11.9
		c29.2,1.7,47.3,15.6,54.8,42.9c1.3,4.6,2,9.4,3,14.1C470.8,95,470.8,100.8,470.8,106.7z M454.1,130.7c6.4-18.7,8.3-36.4,2.9-54.6
		c-5.7-19.2-18.1-30.2-38.3-32.6c-18-2.1-35.8-0.6-53.6,2.4c-29.7,5.1-58.3,14.3-86.1,25.9c-18.5,7.7-37.3,7.8-55.8,0.2
		c-25.1-10.4-50.7-19.1-77.4-24.4c-21-4.2-42.1-6.7-63.5-4C64,45.9,51.8,55.5,45.8,73c-4.4,12.7-5.2,25.7-2.9,38.9
		c1.1,6.1,2.8,12.1,4.5,19.2c6.4-13.6,14.6-19,26-17.8c11.3,1.2,20.5,6.3,27.9,14.8c1,1.2,2,2.3,3.5,4c3.6-13.2,12.6-18.4,24.9-18.6
		c15.7-0.2,28.6,6.1,38.8,17.8c0.9,1.1,1.8,2.2,2.9,3.4c5.1-11.9,13.6-19.2,26-20.9c21.2-2.9,42,9.1,51,28.7
		c0.7,1.6,1.5,3.2,2.5,5.3c6.6-17.2,17.9-28.1,34.9-32.8c17.1-4.7,32.5,0.2,40.8,13c1.3,2,2.3,4.2,3.5,6.2c0.3-0.2,0.5-0.2,0.6-0.3
		c0.8-0.9,1.5-1.8,2.3-2.7c11.2-12.7,25.2-19.1,42.3-17.6c9.5,0.8,16.9,5.4,20.3,14.8c0.4,1,0.9,1.9,1.6,3.3
		c6-8.1,13.3-13.7,22.5-16.8C431.9,110.9,447.4,112.7,454.1,130.7z M177,179.4c0.5,0,0.9,0,1.4,0c0,7.4-0.2,14.9,0.1,22.3
		c0.2,6,3.2,9.6,8.7,10.5c16.9,3,33.9,3.9,51,2.2c3.9-0.4,6.2-2.3,6.7-6.7c2-17.9,0.6-35.6-3.4-53c-3.8-16.5-14.5-26.7-31.1-30.1
		c-19.6-4.1-29.8,8-30.7,21.2C179,157,177.9,168.2,177,179.4z M323.4,179.6c0.5,0,1.1-0.1,1.6-0.1c-1.3-12.8-2.1-25.6-4-38.2
		c-1.4-9.4-9.6-16.2-18.7-17.1c-18.7-1.9-36.6,9.8-41.4,28c-4.7,17.9-6.1,36.2-4,54.7c0.7,6.2,2.1,7.2,8.3,7.8
		c15.8,1.5,31.5,0.5,47.1-1.9c7.5-1.2,10.6-4.2,11-11.7C323.6,193.9,323.4,186.7,323.4,179.6z M334,178.4c-0.2,0-0.3,0-0.5,0
		c0,7.6,0.3,15.2-0.1,22.8c-0.2,3.5,1,4.8,4.1,5.2c16.1,2,31.7,0.1,46.8-6c3.7-1.5,5.9-4.2,6-8.3c0.2-11.2,0.9-22.5,0.3-33.7
		c-0.4-8.2-2.4-16.4-4.1-24.5c-1-5-4.4-8.2-9.4-9.3c-19.5-4.1-43.9,11.8-43,33.7C334.2,165,334,171.7,334,178.4z M167.2,205.6
		c0-8.6-0.1-16.5,0-24.3c0.1-8,0.4-16.1,0.6-24.1c0-2-0.2-4.1-0.7-6.1c-3.7-15.2-18.2-26.4-34.8-27.1c-11-0.5-15.6,2.8-18.1,13.5
		c-4.2,17.9-4.5,36.1-2.8,54.4c0.4,4.2,2.2,7.4,6.3,8.5c8.1,2.2,16.2,4.6,24.5,6C150.8,207.9,159.4,208,167.2,205.6z M101.3,195.5
		c-0.2-2.6-0.5-4.5-0.5-6.3c-0.1-10.3-0.9-20.7-0.2-31c1-15.7-8.9-30.2-24.2-33.8c-10.4-2.4-17.2,1.8-19.1,12.3
		c-2.8,15.7-2,31.4,0.8,47c0.3,1.9,1.7,4.4,3.2,5.2C73.7,195.3,86.9,197.1,101.3,195.5z M401.5,195.2c7,3.3,32.5-1,39.8-6.9
		c1.2-1,2.2-2.9,2.3-4.4c1-9.3,2.2-18.6,2.3-27.8c0.1-7.2-0.7-14.6-2.2-21.7c-1.6-7.9-7.1-11.3-15.1-10.5c-13,1.3-26,13.4-27.6,26.2
		c-0.5,3.7,0.5,7.5,0.5,11.3C401.6,172.4,401.5,183.5,401.5,195.2z"/>
	<path class="st0" d="M250.7,373.6c26.4-32.3,56.5-35.8,81-9.7c9-9.6,20.2-15,33.2-16.4c13.3-1.4,25.3,1,33.8,13.2
		c7-6.8,15-11.5,24.7-13.2c19.3-3.4,33.1,6,36.6,25.7c3.2,17.9,2.1,35.7-1.1,53.6c-1.4,7.4-5.8,12.3-12.3,15.5
		c-14.7,7.2-30.2,9.4-46.4,7.8c-1.4-0.1-3.1-0.4-4.1,0.3c-15.3,9.2-32.4,11.3-49.7,11.2c-8.7-0.1-16.7-0.9-25.2,3.6
		c-6.7,3.5-15.6,3.6-23.5,3.9c-12.1,0.5-24.3,1-36.2-0.7c-7.4-1-13.9-1.1-21.3,0.1c-17.2,2.7-34.6,1.4-51.9-1.2
		c-6-0.9-11.7-2.4-16.5-6.4c-0.7-0.6-2.1-0.7-3.1-0.6c-22,2.9-43.3,1.2-63.2-9.9c-1-0.6-2.5-0.5-3.7-0.3
		c-14.4,1.7-28.2-0.4-41.7-5.3c-10.4-3.8-16.8-10.7-18.2-22.3c-2-17-3.5-34,0.3-50.9C46.5,352,61.7,343.1,81,348
		c8.4,2.2,15.6,6.4,22,12.8c6.7-10.4,16.9-13.8,28.2-13.7c13.8,0.1,26,4.7,36.2,14.2c0.9,0.8,1.6,1.7,2.7,2.8
		c10.5-14.2,24.6-19.5,41.8-16.5C228.5,350.6,241.3,359.4,250.7,373.6z M395.8,437.4c1.1,0.4,3.1,1.8,5.3,2.1
		c14.4,1.9,28.2-0.3,41.3-6.7c3.8-1.9,6.2-4.9,6.6-9.2c0.9-8.8,2.3-17.7,2.3-26.6c0-8.7-0.9-17.5-2.6-26
		c-1.9-9.1-8.9-14.1-18.3-13.7c-15,0.7-25.1,9.1-31.8,22c-0.8,1.4-1.6,2.9-3,5.5c-0.9-2.6-1.4-3.8-1.8-5.1c-0.9-3.1-1.7-6.2-2.6-9.3
		c-2.2-7.7-7.8-11.5-15.4-12.2c-4.6-0.4-9.4-0.4-13.9,0.5c-14.5,2.8-24.4,11.2-29.1,25.4c-0.9,2.6-2.1,5-3.1,7.5
		c-0.5-0.1-1.1-0.2-1.6-0.3c-0.3-2.5-0.7-5-1-7.6c-1.3-14.1-10-23.6-23.7-25.8c-21-3.4-43,11.7-48.1,33.1c-0.7,2.8-1,5.8-1.9,8.5
		c-0.4,1.1-1.7,2.3-2.8,2.6c-0.5,0.2-1.9-1.4-2.4-2.4c-0.6-1.4-0.7-3.1-1-4.7c-3.7-19.3-15.2-31.5-34.1-36.4
		c-18.7-4.8-37.4,4-38.8,27.1c-0.1,1.9-0.7,3.8-1.1,5.6c-0.5,0.1-0.9,0.1-1.4,0.2c-0.9-2.2-1.9-4.3-2.6-6.5
		c-4.8-14.6-14.6-23.9-29.8-26.4c-22-3.7-28.2,3.8-31.5,20.4c-0.1,0.6,0,1.2-0.3,1.7c-0.4,1-1,1.9-1.9,3.6c-1.2-2.2-1.9-3.5-2.6-4.9
		c-5-10.2-12.7-17.4-23.6-20.9c-14.7-4.7-25.2,1.8-27.8,16.9c-2.6,15.6-1.6,31.1,0.6,46.6c0.8,5.9,3.8,9.5,9.1,11.7
		c10.8,4.7,22.1,6.6,33.7,6.1c4-0.2,8-1.7,11.9-2.6c8.1,9.6,20.2,11.1,31.9,12.6c11.9,1.6,24,3.2,35.2-3.6c2.4,5.9,6.8,9,13.2,10.1
		c16.1,2.7,32.2,3.3,48.4,2.3c5.2-0.3,10.1-1.4,13.3-6.4c0.3-0.5,3.2-0.4,3.6,0.2c3,4.7,7.6,5.8,12.5,6.1c16.1,1.1,32.1,0.5,48-2
		c6.7-1.1,11.8-4,14-9.7c4.3,1.3,8.4,3.3,12.6,3.7c15,1.4,29.8-0.1,43.8-5.8C387.9,443.3,391.5,440.1,395.8,437.4z"/>
	<path class="st1" d="M454.1,130.7c-6.6-18-22.2-19.8-34.3-15.6c-9.1,3.1-16.4,8.7-22.5,16.8c-0.7-1.4-1.2-2.3-1.6-3.3
		c-3.5-9.5-10.8-14-20.3-14.8c-17.1-1.5-31.1,4.9-42.3,17.6c-0.8,0.9-1.5,1.8-2.3,2.7c-0.1,0.1-0.3,0.1-0.6,0.3
		c-1.1-2.1-2.2-4.2-3.5-6.2c-8.3-12.7-23.7-17.7-40.8-13c-17,4.6-28.3,15.6-34.9,32.8c-1-2.2-1.8-3.7-2.5-5.3
		c-8.9-19.6-29.7-31.6-51-28.7c-12.4,1.7-20.9,9-26,20.9c-1.1-1.3-1.9-2.4-2.9-3.4c-10.3-11.8-23.2-18-38.8-17.8
		c-12.3,0.2-21.3,5.4-24.9,18.6c-1.5-1.7-2.5-2.9-3.5-4c-7.5-8.4-16.7-13.6-27.9-14.8c-11.4-1.2-19.6,4.2-26,17.8
		c-1.7-7.2-3.4-13.1-4.5-19.2c-2.3-13.2-1.5-26.1,2.9-38.9c6-17.5,18.2-27.1,36.5-29.5c21.4-2.7,42.5-0.2,63.5,4
		c26.7,5.3,52.3,14,77.4,24.4c18.5,7.7,37.3,7.5,55.8-0.2c27.8-11.6,56.3-20.8,86.1-25.9c17.8-3,35.6-4.5,53.6-2.4
		c20.2,2.3,32.6,13.3,38.3,32.6C462.4,94.2,460.5,112,454.1,130.7z"/>
	<path class="st1" d="M177,179.4c0.9-11.2,2-22.4,2.7-33.6c0.9-13.2,11.1-25.2,30.7-21.2c16.5,3.4,27.2,13.6,31.1,30.1
		c4,17.4,5.4,35.1,3.4,53c-0.5,4.3-2.8,6.3-6.7,6.7c-17.1,1.8-34.1,0.8-51-2.2c-5.5-1-8.4-4.6-8.7-10.5c-0.3-7.4-0.1-14.9-0.1-22.3
		C178,179.4,177.5,179.4,177,179.4z"/>
	<path class="st1" d="M323.4,179.6c0,7.1,0.3,14.3-0.1,21.4c-0.4,7.6-3.5,10.6-11,11.7c-15.6,2.4-31.3,3.4-47.1,1.9
		c-6.3-0.6-7.7-1.6-8.3-7.8c-2-18.5-0.6-36.8,4-54.7c4.8-18.2,22.7-29.9,41.4-28c9.1,0.9,17.3,7.7,18.7,17.1
		c1.9,12.7,2.7,25.5,4,38.2C324.4,179.5,323.9,179.5,323.4,179.6z"/>
	<path class="st1" d="M334,178.4c0-6.7,0.2-13.4,0-20.1c-0.8-21.9,23.5-37.8,43-33.7c5.1,1.1,8.4,4.3,9.4,9.3
		c1.7,8.1,3.6,16.3,4.1,24.5c0.6,11.2-0.1,22.4-0.3,33.7c-0.1,4.1-2.2,6.8-6,8.3c-15.1,6.1-30.6,8.1-46.8,6
		c-3.1-0.4-4.3-1.7-4.1-5.2c0.4-7.6,0.1-15.2,0.1-22.8C333.7,178.4,333.8,178.4,334,178.4z"/>
	<path class="st1" d="M167.2,205.6c-7.8,2.4-16.4,2.3-24.9,0.9c-8.3-1.4-16.4-3.8-24.5-6c-4.1-1.1-5.9-4.3-6.3-8.5
		c-1.7-18.3-1.5-36.4,2.8-54.4c2.5-10.7,7.1-13.9,18.1-13.5c16.6,0.7,31.1,11.9,34.8,27.1c0.5,2,0.7,4,0.7,6.1
		c-0.1,8-0.5,16.1-0.6,24.1C167.1,189.1,167.2,197,167.2,205.6z"/>
	<path class="st1" d="M101.3,195.5c-14.3,1.7-27.6-0.1-39.9-6.6c-1.6-0.8-2.9-3.3-3.2-5.2c-2.8-15.6-3.5-31.3-0.8-47
		c1.8-10.5,8.7-14.8,19.1-12.3c15.3,3.6,25.2,18.1,24.2,33.8c-0.7,10.3,0.1,20.7,0.2,31C100.8,191,101.1,192.9,101.3,195.5z"/>
	<path class="st1" d="M401.5,195.2c0-11.7,0.1-22.8,0-33.8c0-3.8-1-7.6-0.5-11.3c1.6-12.8,14.6-24.9,27.6-26.2
		c8-0.8,13.5,2.6,15.1,10.5c1.4,7.1,2.3,14.4,2.2,21.7c-0.1,9.3-1.3,18.6-2.3,27.8c-0.2,1.6-1.1,3.5-2.3,4.4
		C434.1,194.2,408.5,198.5,401.5,195.2z"/>
	<path class="st1" d="M395.8,437.4c-4.3,2.7-7.9,5.9-12.2,7.6c-14.1,5.7-28.9,7.1-43.8,5.8c-4.2-0.4-8.2-2.3-12.6-3.7
		c-2.2,5.7-7.2,8.6-14,9.7c-15.9,2.5-31.9,3.1-48,2c-4.8-0.3-9.5-1.5-12.5-6.1c-0.4-0.6-3.2-0.7-3.6-0.2c-3.1,5-8.1,6.1-13.3,6.4
		c-16.2,1-32.4,0.5-48.4-2.3c-6.3-1.1-10.7-4.2-13.2-10.1c-11.2,6.8-23.3,5.2-35.2,3.6c-11.7-1.5-23.8-3-31.9-12.6
		c-3.9,0.9-7.9,2.4-11.9,2.6c-11.6,0.5-22.9-1.5-33.7-6.1c-5.3-2.3-8.3-5.8-9.1-11.7c-2.2-15.5-3.2-31.1-0.6-46.6
		c2.6-15.1,13.1-21.6,27.8-16.9c10.9,3.5,18.6,10.6,23.6,20.9c0.7,1.4,1.4,2.7,2.6,4.9c0.9-1.7,1.5-2.6,1.9-3.6
		c0.2-0.5,0.2-1.2,0.3-1.7c3.3-16.7,9.4-24.2,31.5-20.4c15.1,2.6,25,11.8,29.8,26.4c0.7,2.2,1.7,4.4,2.6,6.5
		c0.5-0.1,0.9-0.1,1.4-0.2c0.4-1.9,1-3.7,1.1-5.6c1.4-23.1,20.1-31.9,38.8-27.1c18.9,4.9,30.4,17.1,34.1,36.4c0.3,1.6,0.4,3.2,1,4.7
		c0.4,1,1.9,2.6,2.4,2.4c1.1-0.3,2.4-1.5,2.8-2.6c0.9-2.8,1.2-5.7,1.9-8.5c5.1-21.4,27.1-36.5,48.1-33.1
		c13.7,2.2,22.4,11.7,23.7,25.8c0.2,2.5,0.6,5,1,7.6c0.5,0.1,1.1,0.2,1.6,0.3c1-2.5,2.2-4.9,3.1-7.5c4.7-14.2,14.7-22.5,29.1-25.4
		c4.5-0.9,9.3-0.9,13.9-0.5c7.6,0.7,13.2,4.5,15.4,12.2c0.9,3.1,1.7,6.2,2.6,9.3c0.4,1.3,0.9,2.6,1.8,5.1c1.4-2.6,2.3-4,3-5.5
		c6.8-12.9,16.8-21.3,31.8-22c9.3-0.5,16.4,4.5,18.3,13.7c1.7,8.5,2.6,17.3,2.6,26c0,8.9-1.4,17.7-2.3,26.6
		c-0.4,4.3-2.7,7.3-6.6,9.2c-13.1,6.3-26.9,8.5-41.3,6.7C398.9,439.2,396.9,437.8,395.8,437.4z"/>
</g>
</svg>
