<?xml version="1.0" encoding="utf-8"?>
<!-- Generator: Adobe Illustrator 25.2.0, SVG Export Plug-In . SVG Version: 6.00 Build 0)  -->
<svg version="1.1" id="Outline" xmlns="http://www.w3.org/2000/svg" xmlns:xlink="http://www.w3.org/1999/xlink" x="0px" y="0px"
	 viewBox="0 0 512 512" style="enable-background:new 0 0 512 512;" xml:space="preserve">
<style type="text/css">
	.st0{fill:#FFFFFF;}
</style>
<path class="st0" d="M352,16H192c-22.1,0-40,17.9-40,40v24c-44.2,0-80,35.8-80,80s35.8,80,80,80v152c0,22.1,17.9,40,40,40h111.8
	l0.2,0.3V488c0,4.4,3.6,8,8,8h120c4.4,0,8-3.6,8-8v-54.3l15.5-42.7c0.3-0.9,0.5-1.8,0.5-2.7V288c0-13.3-10.7-24-24-24
	c-2.7,0-5.4,0.5-8,1.4V264c0-13.2-10.7-24-24-24c-2.7,0-5.5,0.5-8,1.4V56C392,33.9,374.1,16,352,16z M192,32h160
	c10.2,0,19.2,6.4,22.6,16H169.4C172.8,38.4,181.8,32,192,32z M168,64h208v169.4c-5.2-1.8-10.8-1.8-16,0V120c0-4.4-3.6-8-8-8H216
	c-11.7-15.6-28.8-26.5-48-30.4V64z M320,144h-32c-4.4,0-8,3.6-8,8v32c0,4.4,3.6,8,8,8h25.4c-0.9,2.6-1.4,5.3-1.4,8v8h-24
	c-4.4,0-8,3.6-8,8v32c0,4.4,3.6,8,8,8h24v37c-2.7,0.5-5.4,1.3-8,2.4V280c0-4.4-3.6-8-8-8h-48c-4.4,0-8,3.6-8,8v40h-40v-96
	c11-8.3,19.7-19.3,25.3-32H256c4.4,0,8-3.6,8-8v-32c0-4.4-3.6-8-8-8h-25.6c-1.1-5.5-2.8-10.9-5.1-16H344v49.4
	c-5.2-1.8-10.8-1.8-16,0V152C328,147.6,324.4,144,320,144z M312,160v16h-16v-16H312z M312,224v16h-16v-16H312z M288,288v21.1
	c-2.2,3.4-3.8,7-5.1,10.9H256v-32H288z M232,176v-16h16v16H232z M152,224c-35.3,0-64-28.7-64-64s28.7-64,64-64s64,28.7,64,64
	C216,195.3,187.3,224,152,224z M168,238.4c5.5-1.1,10.9-2.8,16-5.1V328c0,4.4,3.6,8,8,8h88.1c-0.1,1.4-0.1,2.8-0.1,4.3V384H168
	V238.4z M192,416c-10.2,0-19.2-6.4-22.6-16h116.1l9.2,16H192z M400,256c4.4,0,8,3.6,8,8v72c0,4.4,3.6,8,8,8s8-3.6,8-8v-48
	c0-4.4,3.6-8,8-8s8,3.6,8,8v98.9l-15.5,42.7c-0.3,0.9-0.5,1.8-0.5,2.7V480H320v-49.8c0-1.4-0.4-2.8-1.1-4L296,386.2v-45.9
	c0-8.3,1.7-26,16-30.8V336c0,4.4,3.6,8,8,8s8-3.6,8-8v-32c0-0.6-0.1-1.2-0.2-1.9c0.1-0.6,0.2-1.2,0.2-1.9V200c0-4.4,3.6-8,8-8
	s8,3.6,8,8v109c0,4.4,3.6,8,8,8s8-3.6,8-8v-53c0-4.4,3.6-8,8-8s8,3.6,8,8v64c0,4.4,3.6,8,8,8s8-3.6,8-8v-56
	C392,259.6,395.6,256,400,256z"/>
<path class="st0" d="M256,208h-32c-4.4,0-8,3.6-8,8v32c0,4.4,3.6,8,8,8h32c4.4,0,8-3.6,8-8v-32C264,211.6,260.4,208,256,208z
	 M248,240h-16v-16h16V240z"/>
<path class="st0" d="M178.3,130.3L136,172.7l-10.3-10.3c-3.1-3.1-8.2-3.1-11.3,0c-3.1,3.1-3.1,8.2,0,11.3l16,16
	c3.1,3.1,8.2,3.1,11.3,0c0,0,0,0,0,0l48-48c3.1-3.1,3.1-8.2,0-11.3C186.5,127.2,181.5,127.2,178.3,130.3L178.3,130.3z"/>
<path class="st0" d="M256,96h96c4.4,0,8-3.6,8-8s-3.6-8-8-8h-96c-4.4,0-8,3.6-8,8S251.6,96,256,96z"/>
<circle class="st0" cx="224" cy="88" r="8"/>
<path class="st0" d="M224,352h-32c-4.4,0-8,3.6-8,8s3.6,8,8,8h32c4.4,0,8-3.6,8-8S228.4,352,224,352z"/>
</svg>
