<?xml version="1.0" encoding="utf-8"?>
<!-- Generator: Adobe Illustrator 25.2.0, SVG Export Plug-In . SVG Version: 6.00 Build 0)  -->
<svg version="1.1" id="Livello_1" xmlns="http://www.w3.org/2000/svg" xmlns:xlink="http://www.w3.org/1999/xlink" x="0px" y="0px"
	 viewBox="0 0 1206.9 283.5" style="enable-background:new 0 0 1206.9 283.5;" xml:space="preserve">
<style type="text/css">
	.st0{fill:none;stroke:#C3DAC2;stroke-width:1.9065;stroke-miterlimit:10;}
	.st1{fill:#2F529F;}
	.st2{fill:none;stroke:#2F529F;stroke-width:9.5329;stroke-miterlimit:10;}
	.st3{fill:#2B4D9C;stroke:#2B4D9C;stroke-width:1.9065;stroke-miterlimit:10;}
	.st4{fill:#8C8C8C;stroke:#8C8C8C;stroke-width:1.9065;stroke-miterlimit:10;}
	.st5{enable-background:new    ;}
	.st6{fill:#2B4D9C;}
</style>
<path class="st0" d="M48.5,22.2"/>
<g>
	<path class="st1" d="M287.7,67.8c0,21.5-13.9,38.8-31,38.8s-31-17.5-31-38.8c0-21.5,13.9-38.8,31-38.8S287.7,46.2,287.7,67.8z"/>
	<path class="st2" d="M287.7,67.8c0,21.5-13.9,38.8-31,38.8s-31-17.5-31-38.8c0-21.5,13.9-38.8,31-38.8S287.7,46.2,287.7,67.8z"/>
</g>
<path class="st3" d="M29.4,28.3c0,0,136.4-73.8,184.9,106.3c42.2,156.6,111,114.7,134.1,117.4c0,0-49.1,31-96.7,11.9
	c-15-6.1-63.5-24.7-94.7-112.8C114.7,29.6,59,31.2,29.4,28.3"/>
<polygon class="st4" points="134.9,133.1 162.5,202.6 90,270.4 29.4,270.4 "/>
<g class="st5">
	<path class="st6" d="M443.5,197.8c-3.9,3.9-9.7,6.1-17.9,6.1c-7.7,0-13.9-1.9-18.1-6.1c-5.2-5.3-6.8-11-6.8-23.5h9.5
		c0,8.9,1,13.7,4.5,17.3c2.4,2.4,6,3.9,10.8,3.9c5.3,0,8.7-1.5,11-3.9c3.7-4,4.5-9.2,4.5-18.2c0-14.4-2.3-19.5-12.1-23.5l-12.3-5
		c-11.8-4.8-15.2-11.5-15.2-28.7c0-9.8,2.6-17.7,7.9-22.7c4.2-4,9.7-6.1,16.8-6.1c7.4,0,13.2,2.3,17.3,6.3
		c5.6,5.6,6.9,12.3,6.9,22.3h-9.5c0-7.3-1-11.9-4.4-15.8c-2.3-2.6-5.6-4.2-10.5-4.2c-4.5,0-7.7,1.5-10,3.7c-3.5,3.5-5,9.4-5,16.4
		c0,13.2,1.9,17.1,12.4,21.4l12.3,5c12.4,5,14.8,14,14.8,30.6C450.6,185.1,448.6,192.7,443.5,197.8z"/>
	<path class="st6" d="M492.7,197.8c-4-3.7-6.1-9.2-6.1-16.8V128h-10v-7.1h10v-24h9v24h14v7.1h-14v53.1c0,9.8,5.2,13.9,14.7,13.9v8.1
		C503.6,203,497.5,202.4,492.7,197.8z"/>
	<path class="st6" d="M570.7,203v-6.6c-1,1.8-3.2,4-4.7,5c-2.6,1.8-5.6,2.9-9.4,2.9c-5.5,0-9.5-1.9-12.9-5.5c-3.2-3.4-5-8.1-5-16.3
		v-61.6h9v61.8c0,9,5,13.4,11.3,13.4c6.3,0,11.5-4.4,11.5-13.4v-61.8h9V203H570.7z"/>
	<path class="st6" d="M645.5,203v-6.6c-0.8,1.8-3.1,4-4.5,5c-2.7,1.9-5.6,2.9-9.4,2.9c-5,0-9.4-1.9-12.7-5.8c-5-5.6-6.1-16-6.1-36.4
		s1.1-30.6,6.1-36.6c2.9-3.5,6.9-5.8,12.7-5.8c3.7,0,7.1,1,9.4,2.6c1.5,1.1,3.2,3.1,4.4,4.8V88.2h9V203H645.5z M645.4,142
		c0-5.3-1.3-8.9-3.7-11.3c-2.1-1.9-4.7-3.1-7.9-3.1c-3.2,0-6,1.6-7.7,3.7c-3.7,4.2-4.2,12.1-4.2,30.6s0.5,26.3,4.2,30.6
		c1.8,2.1,4.5,3.5,7.7,3.5c3.2,0,5.8-1.1,7.9-3.1c2.4-2.4,3.7-6,3.7-11.3V142z"/>
	<path class="st6" d="M689.1,102V90.4h11.6V102H689.1z M690.4,203v-82.1h9V203H690.4z"/>
	<path class="st6" d="M769.2,197.8c-3.5,4.4-8.5,6.5-15.2,6.5s-11.6-2.1-15.2-6.5c-5-6-6.1-16.5-6.1-35.8s1.1-29.8,6.1-35.8
		c3.5-4.4,8.5-6.6,15.2-6.6s11.6,2.3,15.2,6.6c5,6,6.1,16.4,6.1,35.8S774.2,191.9,769.2,197.8z M762.1,131.4
		c-1.8-2.1-4.5-3.7-8.1-3.7s-6.5,1.6-8.2,3.7c-3.7,4.5-4,13.1-4,30.6c0,17.6,0.3,26,4,30.5c1.8,2.1,4.7,3.7,8.2,3.7s6.3-1.6,8.1-3.7
		c3.7-4.5,4.2-12.9,4.2-30.5C766.3,144.5,765.8,135.9,762.1,131.4z"/>
	<path class="st6" d="M879.4,152.2h-13.1V203h-9.5V88.2h22.6c13.5,0,24.8,5.2,24.8,32.1C904.2,147.2,892.9,152.2,879.4,152.2z
		 M878.9,96.7h-12.6v46.9h12.6c9.4,0,15.8-4,15.8-23.4S888.2,96.7,878.9,96.7z"/>
	<path class="st6" d="M936.5,102V90.4h11.6V102H936.5z M937.8,203v-82.1h9V203H937.8z"/>
	<path class="st6" d="M1014.7,203v-61.8c0-9-5-13.4-11.3-13.4c-6.3,0-11.5,4.4-11.5,13.4V203h-9v-82.1h8.9v6.6c1-1.8,3.2-4,4.7-5
		c2.6-1.8,5.6-2.9,9.4-2.9c5.5,0,9.5,2.1,12.9,5.6c3.2,3.4,5,7.9,5,16.1V203H1014.7z"/>
	<path class="st6" d="M1092.7,197.8c-3.5,4.4-8.5,6.5-15.2,6.5s-11.6-2.1-15.2-6.5c-5-6-6.1-16.5-6.1-35.8s1.1-29.8,6.1-35.8
		c3.5-4.4,8.5-6.6,15.2-6.6s11.6,2.3,15.2,6.6c5,6,6.1,16.4,6.1,35.8S1097.7,191.9,1092.7,197.8z M1085.6,131.4
		c-1.8-2.1-4.5-3.7-8.1-3.7s-6.5,1.6-8.2,3.7c-3.7,4.5-4,13.1-4,30.6c0,17.6,0.3,26,4,30.5c1.8,2.1,4.7,3.7,8.2,3.7s6.3-1.6,8.1-3.7
		c3.7-4.5,4.2-12.9,4.2-30.5C1089.8,144.5,1089.3,135.9,1085.6,131.4z"/>
	<path class="st6" d="M1137.2,197.8c-3.9-3.5-6.1-8.5-6.1-16.8V88.2h9v92.9c0,8.9,4.4,13.9,13.4,13.9v8.1
		C1147.4,203,1141.8,202,1137.2,197.8z"/>
	<path class="st6" d="M1180.8,102V90.4h11.6V102H1180.8z M1182.1,203v-82.1h9V203H1182.1z"/>
</g>
</svg>
